<svg width="151" height="150" viewBox="0 0 151 150" fill="none" xmlns="http://www.w3.org/2000/svg">
<rect x="0.833008" width="150" height="150" rx="12" fill="#F7F7F7"/>
<g clip-path="url(#clip0_484_7130)">
<path d="M93.3906 96.9462C93.3906 92.2897 91.5408 87.824 88.2482 84.5313C84.9556 81.2387 80.4898 79.3889 75.8334 79.3889C71.1769 79.3889 66.7111 81.2387 63.4185 84.5313C60.1259 87.824 58.2761 92.2897 58.2761 96.9462H62.6654C62.6654 93.4538 64.0528 90.1045 66.5222 87.635C68.9917 85.1656 72.341 83.7782 75.8334 83.7782C79.3257 83.7782 82.675 85.1656 85.1445 87.635C87.614 90.1045 89.0013 93.4538 89.0013 96.9462H93.3906ZM75.8334 77.1943C83.1087 77.1943 89.0013 71.3016 89.0013 64.0263C89.0013 56.7511 83.1087 50.8584 75.8334 50.8584C68.5581 50.8584 62.6654 56.7511 62.6654 64.0263C62.6654 71.3016 68.5581 77.1943 75.8334 77.1943ZM75.8334 72.805C70.9832 72.805 67.0547 68.8765 67.0547 64.0263C67.0547 59.1761 70.9832 55.2477 75.8334 55.2477C80.6836 55.2477 84.612 59.1761 84.612 64.0263C84.612 68.8765 80.6836 72.805 75.8334 72.805Z" fill="#909090"/>
</g>
<defs>
<clipPath id="clip0_484_7130">
<rect width="52.6718" height="52.6718" fill="white" transform="matrix(-1 0 0 1 102.169 48.6641)"/>
</clipPath>
</defs>
</svg>
