<svg width="172" height="41" viewBox="0 0 172 41" fill="none" xmlns="http://www.w3.org/2000/svg">
<path fill-rule="evenodd" clip-rule="evenodd" d="M19.9533 28.1701H21.7285V20.0776L19.9533 17.1225V28.1701ZM19.9533 13.5017H22.0472L26.1627 20.5272L30.2782 13.5017H32.3716L32.2561 13.7008V36.6413C28.8704 39.2706 24.6184 40.8369 20 40.8369C12.2853 40.8369 5.59148 36.4679 2.25558 30.07H4.51116C7.65871 35.3388 13.417 38.8672 20 38.8672C23.9225 38.8672 27.5525 37.6139 30.5112 35.4866V16.7062L26.1627 24.1983L19.9533 13.5017ZM9.80908 14.0385C9.3862 14.2279 8.89761 14.6688 8.60765 15.0177C8.36849 15.3057 8.32435 15.4309 8.15345 15.7152L8.14165 15.7327C8.13754 15.7404 8.12369 15.7614 8.11907 15.7691L7.97793 16.0391C7.55453 17.0183 7.60123 18.3255 7.95946 19.2606C8.44393 20.5251 9.6854 21.4135 10.9869 21.6753C12.0077 21.8806 12.8909 21.5547 13.8363 22.0961C14.2951 22.3589 14.6148 22.8095 14.795 23.315C15.0028 23.8991 14.9571 24.6442 14.6831 25.1282C13.9425 26.4374 13.0352 26.3943 11.5961 26.3943C10.7673 26.3943 2.97511 26.4323 2.88581 26.3918C2.86169 26.3805 2.83398 26.3374 2.80267 26.2706C2.26123 24.556 1.96921 22.7304 1.96921 20.8367C1.96921 10.8791 10.0421 2.80614 20 2.80614C29.9579 2.80614 38.0308 10.8791 38.0308 20.8367C38.0308 25.0887 36.5579 28.9959 34.0965 32.0788V35.0242C37.7424 31.4008 40 26.383 40 20.8367C40 9.79109 31.0459 0.836914 20 0.836914C8.95458 0.836914 0 9.79109 0 20.8367C0 23.4484 0.5009 25.9432 1.41186 28.2301H3.55042L3.54991 28.2286C6.94175 28.2779 11.418 28.1819 12.6554 28.1737C14.6266 28.1603 16.2936 26.7325 16.6297 24.8285C16.7082 24.3851 16.737 23.7692 16.6333 23.3273C16.5856 23.1236 16.5409 22.8454 16.4665 22.6648C16.3834 22.462 16.3125 22.3065 16.2191 22.1238C16.0267 21.7481 15.7973 21.4556 15.535 21.1882L15.086 20.8141C13.2143 19.4191 11.8507 20.3819 10.5912 19.6583C9.4601 19.0086 9.0952 17.4027 9.8717 16.3126C10.0118 16.1166 10.4706 15.6341 10.7401 15.5941C11.2984 15.4052 11.4432 15.3744 12.096 15.3744C12.7164 15.3749 16.4219 15.4001 16.6975 15.3698C16.7544 15.203 16.7529 13.6962 16.7041 13.5499C16.6764 13.535 16.7093 13.5392 16.6272 13.5227L11.9784 13.514C10.8217 13.551 10.7437 13.6208 9.8096 14.039L9.80908 14.0385Z" fill="#8BC0D5"/>
<path d="M57.0677 19.2568H55.0669C55.0303 18.9979 54.9557 18.768 54.843 18.567C54.7303 18.3629 54.5857 18.1893 54.4091 18.0462C54.2324 17.9031 54.0284 17.7934 53.7969 17.7173C53.5685 17.6412 53.3203 17.6031 53.0523 17.6031C52.5681 17.6031 52.1463 17.7234 51.787 17.964C51.4276 18.2015 51.1489 18.5487 50.951 19.0055C50.753 19.4593 50.6541 20.0105 50.6541 20.6592C50.6541 21.3261 50.753 21.8865 50.951 22.3402C51.152 22.794 51.4322 23.1366 51.7915 23.3681C52.1509 23.5995 52.5666 23.7152 53.0386 23.7152C53.3036 23.7152 53.5487 23.6802 53.7741 23.6102C54.0025 23.5401 54.205 23.4381 54.3816 23.3041C54.5583 23.1671 54.7045 23.0011 54.8202 22.8062C54.939 22.6113 55.0212 22.389 55.0669 22.1392L57.0677 22.1484C57.0159 22.5778 56.8865 22.992 56.6794 23.3909C56.4754 23.7868 56.1998 24.1416 55.8526 24.4553C55.5084 24.7659 55.0973 25.0126 54.6192 25.1953C54.1441 25.375 53.6066 25.4648 53.0066 25.4648C52.1722 25.4648 51.4261 25.276 50.7683 24.8984C50.1135 24.5207 49.5958 23.9741 49.2151 23.2584C48.8375 22.5428 48.6487 21.6763 48.6487 20.6592C48.6487 19.639 48.8405 18.771 49.2243 18.0553C49.608 17.3397 50.1287 16.7946 50.7865 16.42C51.4444 16.0423 52.1844 15.8535 53.0066 15.8535C53.5487 15.8535 54.0512 15.9297 54.5141 16.0819C54.9801 16.2342 55.3927 16.4565 55.7521 16.7489C56.1114 17.0382 56.4038 17.393 56.6292 17.8132C56.8576 18.2335 57.0037 18.7147 57.0677 19.2568ZM57.9883 17.6122V15.9814H65.6718V17.6122H62.8076V25.3369H60.8525V17.6122H57.9883ZM67.2651 25.3369H65.1455L68.3751 15.9814H70.9241L74.1492 25.3369H72.0296L69.6862 18.1193H69.6131L67.2651 25.3369ZM67.1326 21.6596H72.1392V23.2036H67.1326V21.6596ZM75.1337 25.3369V15.9814H77.1117V19.8415H81.1271V15.9814H83.1005V25.3369H81.1271V21.4723H77.1117V25.3369H75.1337ZM84.0828 27.5936V23.7609H84.7177C84.934 23.6056 85.1319 23.3863 85.3116 23.1031C85.4913 22.8168 85.6451 22.4225 85.773 21.92C85.9009 21.4144 85.9923 20.7536 86.0471 19.9374L86.312 15.9814H92.5018V23.7609H93.5251V27.5844H91.6247V25.3369H85.9831V27.5936H84.0828ZM87.0018 23.7609H90.6015V17.6122H88.0936L87.9474 19.9374C87.9078 20.5556 87.8423 21.1038 87.751 21.5819C87.6627 22.0601 87.5545 22.4788 87.4266 22.8382C87.3018 23.1945 87.1602 23.5021 87.0018 23.7609ZM96.1987 25.3369H94.0791L97.3087 15.9814H99.8577L103.083 25.3369H100.963L98.6198 18.1193H98.5467L96.1987 25.3369ZM96.0662 21.6596H101.073V23.2036H96.0662V21.6596ZM104.067 25.3369V15.9814H107.758C108.468 15.9814 109.072 16.1169 109.572 16.388C110.071 16.656 110.452 17.029 110.714 17.5072C110.979 17.9823 111.111 18.5304 111.111 19.1517C111.111 19.773 110.977 20.3211 110.709 20.7962C110.441 21.2713 110.053 21.6413 109.544 21.9063C109.039 22.1712 108.427 22.3037 107.708 22.3037H105.356V20.7186H107.388C107.769 20.7186 108.083 20.6531 108.329 20.5221C108.579 20.3881 108.765 20.2039 108.887 19.9694C109.012 19.7318 109.074 19.4593 109.074 19.1517C109.074 18.8411 109.012 18.57 108.887 18.3386C108.765 18.1041 108.579 17.9229 108.329 17.795C108.08 17.664 107.763 17.5985 107.379 17.5985H106.045V25.3369H104.067ZM111.898 17.6122V15.9814H119.582V17.6122H116.718V25.3369H114.763V17.6122H111.898ZM123.542 15.9814H125.981L128.557 22.2671H128.667L131.243 15.9814H133.683V25.3369H131.764V19.2476H131.686L129.265 25.2912H127.959L125.538 19.2248H125.46V25.3369H123.542V15.9814ZM143.768 20.6592C143.768 21.6794 143.575 22.5473 143.188 23.263C142.804 23.9787 142.28 24.5253 141.616 24.9029C140.956 25.2775 140.213 25.4648 139.387 25.4648C138.556 25.4648 137.81 25.276 137.149 24.8984C136.488 24.5207 135.966 23.9741 135.582 23.2584C135.198 22.5428 135.006 21.6763 135.006 20.6592C135.006 19.639 135.198 18.771 135.582 18.0553C135.966 17.3397 136.488 16.7946 137.149 16.42C137.81 16.0423 138.556 15.8535 139.387 15.8535C140.213 15.8535 140.956 16.0423 141.616 16.42C142.28 16.7946 142.804 17.3397 143.188 18.0553C143.575 18.771 143.768 19.639 143.768 20.6592ZM141.763 20.6592C141.763 19.9983 141.664 19.441 141.466 18.9872C141.271 18.5335 140.995 18.1893 140.639 17.9549C140.283 17.7204 139.865 17.6031 139.387 17.6031C138.909 17.6031 138.492 17.7204 138.136 17.9549C137.779 18.1893 137.502 18.5335 137.304 18.9872C137.109 19.441 137.012 19.9983 137.012 20.6592C137.012 21.32 137.109 21.8773 137.304 22.3311C137.502 22.7849 137.779 23.129 138.136 23.3635C138.492 23.598 138.909 23.7152 139.387 23.7152C139.865 23.7152 140.283 23.598 140.639 23.3635C140.995 23.129 141.271 22.7849 141.466 22.3311C141.664 21.8773 141.763 21.32 141.763 20.6592ZM144.585 25.3369V23.7472L144.85 23.7244C145.191 23.697 145.466 23.5675 145.676 23.3361C145.887 23.1016 146.043 22.7285 146.147 22.2169C146.254 21.7022 146.322 21.0109 146.353 20.143L146.508 15.9814H152.858V25.3369H150.934V17.5666H148.344L148.198 20.8236C148.149 21.8712 148.024 22.727 147.824 23.3909C147.626 24.0548 147.309 24.5451 146.873 24.8618C146.441 25.1786 145.849 25.3369 145.096 25.3369H144.585ZM154.347 15.9814H156.32V21.8652H156.398L160.441 15.9814H162.172V25.3369H160.194V19.4486H160.126L156.06 25.3369H154.347V15.9814ZM170.846 25.3369H168.872V17.5985H167.539C167.158 17.5985 166.841 17.6549 166.588 17.7676C166.339 17.8772 166.151 18.0386 166.026 18.2518C165.902 18.465 165.839 18.7269 165.839 19.0375C165.839 19.3451 165.902 19.6024 166.026 19.8095C166.151 20.0166 166.339 20.1719 166.588 20.2755C166.838 20.379 167.152 20.4308 167.529 20.4308H169.676V22.0205H167.21C166.494 22.0205 165.882 21.9017 165.373 21.6642C164.865 21.4266 164.476 21.0855 164.208 20.6409C163.94 20.1932 163.806 19.6588 163.806 19.0375C163.806 18.4193 163.937 17.8818 164.199 17.425C164.464 16.9651 164.846 16.6103 165.346 16.3606C165.848 16.1078 166.453 15.9814 167.159 15.9814H170.846V25.3369ZM165.798 21.0794H167.931L165.656 25.3369H163.473L165.798 21.0794Z" fill="#8BC0D5"/>
</svg>
