<svg width="45" height="40" viewBox="0 0 45 40" fill="none" xmlns="http://www.w3.org/2000/svg">
<path fill-rule="evenodd" clip-rule="evenodd" d="M24.121 21.0751H25.4864V14.8511L24.121 12.5782V21.0751ZM24.121 9.79343H25.7315L28.8968 15.1968L32.0621 9.79343H33.6722L33.5834 9.94658V27.5905C30.9794 29.6127 27.7091 30.8174 24.1569 30.8174C18.2234 30.8174 13.075 27.4571 10.5092 22.5364H12.2441C14.6649 26.5887 19.0938 29.3024 24.1569 29.3024C27.1738 29.3024 29.9657 28.3385 32.2413 26.7024V12.2581L28.8968 18.0203L24.121 9.79343ZM16.3188 10.2063C15.9936 10.352 15.6178 10.691 15.3948 10.9595C15.2108 11.1809 15.1769 11.2772 15.0454 11.4959L15.0364 11.5093C15.0332 11.5152 15.0225 11.5314 15.019 11.5373L14.9104 11.745C14.5848 12.4981 14.6207 13.5035 14.8962 14.2227C15.2689 15.1953 16.2237 15.8785 17.2247 16.0799C18.0098 16.2377 18.6892 15.9871 19.4163 16.4035C19.7691 16.6056 20.0151 16.9522 20.1536 17.341C20.3135 17.7902 20.2783 18.3633 20.0676 18.7356C19.498 19.7425 18.8001 19.7094 17.6933 19.7094C17.0558 19.7094 11.0626 19.7386 10.994 19.7074C10.9754 19.6987 10.9541 19.6656 10.93 19.6142C10.5136 18.2955 10.289 16.8914 10.289 15.4349C10.289 7.77637 16.498 1.56732 24.1569 1.56732C31.8158 1.56732 38.0249 7.77637 38.0249 15.4349C38.0249 18.7052 36.892 21.7102 34.9989 24.0814V26.3467C37.803 23.5599 39.5394 19.7007 39.5394 15.4349C39.5394 6.93955 32.6526 0.0527534 24.1569 0.0527534C15.6616 0.0527534 8.77441 6.93955 8.77441 15.4349C8.77441 17.4436 9.15967 19.3624 9.86031 21.1213H11.5051L11.5047 21.1201C14.1135 21.158 17.5563 21.0842 18.508 21.0779C20.0241 21.0676 21.3062 19.9695 21.5648 18.5051C21.6251 18.164 21.6473 17.6903 21.5675 17.3505C21.5308 17.1938 21.4965 16.9798 21.4392 16.8409C21.3753 16.685 21.3208 16.5654 21.249 16.4248C21.101 16.1359 20.9245 15.9109 20.7228 15.7053L20.3774 15.4175C18.9378 14.3446 17.8891 15.0851 16.9204 14.5286C16.0504 14.0289 15.7698 12.7938 16.367 11.9554C16.4748 11.8046 16.8276 11.4335 17.0349 11.4027C17.4643 11.2575 17.5756 11.2338 18.0777 11.2338C18.555 11.2342 21.4049 11.2535 21.6169 11.2302C21.6607 11.1019 21.6595 9.94303 21.622 9.83054C21.6007 9.81909 21.6259 9.82224 21.5628 9.80961L17.9873 9.8029C17.0976 9.83133 17.0376 9.88501 16.3192 10.2067L16.3188 10.2063Z" fill="#3980A0"/>
<path d="M3.29963 35.7348H2.57155C2.55826 35.6406 2.5311 35.5569 2.4901 35.4838C2.4491 35.4095 2.39646 35.3463 2.33218 35.2943C2.26791 35.2422 2.19366 35.2023 2.10944 35.1746C2.02632 35.1469 1.93601 35.133 1.83849 35.133C1.66228 35.133 1.5088 35.1768 1.37803 35.2643C1.24727 35.3508 1.14587 35.4771 1.07384 35.6433C1.0018 35.8085 0.965787 36.009 0.965787 36.2451C0.965787 36.4878 1.0018 36.6917 1.07384 36.8568C1.14698 37.0219 1.24893 37.1466 1.3797 37.2308C1.51046 37.315 1.66173 37.3572 1.8335 37.3572C1.92991 37.3572 2.01912 37.3444 2.10113 37.3189C2.18424 37.2934 2.25794 37.2563 2.32221 37.2075C2.38649 37.1577 2.43968 37.0973 2.48179 37.0264C2.52501 36.9554 2.55493 36.8745 2.57155 36.7837L3.29963 36.787C3.2808 36.9432 3.2337 37.094 3.15834 37.2391C3.08409 37.3832 2.9838 37.5123 2.85747 37.6264C2.73224 37.7395 2.58264 37.8292 2.40865 37.8957C2.23577 37.9611 2.04018 37.9938 1.82186 37.9938C1.51822 37.9938 1.24671 37.9251 1.00734 37.7877C0.769084 37.6503 0.580691 37.4514 0.442168 37.1909C0.304752 36.9305 0.236044 36.6152 0.236044 36.2451C0.236044 35.8738 0.30586 35.558 0.445492 35.2976C0.585124 35.0372 0.774625 34.8388 1.01399 34.7025C1.25336 34.5651 1.52265 34.4964 1.82186 34.4964C2.01912 34.4964 2.20197 34.5241 2.37042 34.5795C2.53997 34.6349 2.69013 34.7158 2.8209 34.8222C2.95166 34.9274 3.05805 35.0566 3.14006 35.2095C3.22317 35.3624 3.27636 35.5375 3.29963 35.7348ZM3.63462 35.1363V34.5429H6.43059V35.1363H5.38833V37.9473H4.67688V35.1363H3.63462ZM7.01035 37.9473H6.23905L7.41428 34.5429H8.34184L9.51541 37.9473H8.74411L7.89136 35.3209H7.86476L7.01035 37.9473ZM6.96214 36.6091H8.78401V37.171H6.96214V36.6091ZM9.87367 37.9473V34.5429H10.5934V35.9475H12.0546V34.5429H12.7727V37.9473H12.0546V36.541H10.5934V37.9473H9.87367ZM13.1301 38.7684V37.3738H13.3612C13.4399 37.3173 13.5119 37.2375 13.5773 37.1344C13.6427 37.0302 13.6986 36.8867 13.7452 36.7039C13.7917 36.5199 13.825 36.2794 13.8449 35.9824L13.9413 34.5429H16.1937V37.3738H16.5661V38.7651H15.8746V37.9473H13.8216V38.7684H13.1301ZM14.1923 37.3738H15.5022V35.1363H14.5896L14.5364 35.9824C14.522 36.2074 14.4982 36.4069 14.4649 36.5809C14.4328 36.7549 14.3935 36.9072 14.3469 37.038C14.3015 37.1677 14.25 37.2796 14.1923 37.3738ZM17.539 37.9473H16.7677L17.9429 34.5429H18.8705L20.044 37.9473H19.2727L18.42 35.3209H18.3934L17.539 37.9473ZM17.4908 36.6091H19.3126V37.171H17.4908V36.6091ZM20.4023 37.9473V34.5429H21.7454C22.0036 34.5429 22.2236 34.5922 22.4053 34.6909C22.5871 34.7884 22.7256 34.9241 22.8209 35.0981C22.9173 35.271 22.9655 35.4705 22.9655 35.6965C22.9655 35.9226 22.9168 36.1221 22.8192 36.295C22.7217 36.4678 22.5804 36.6025 22.3954 36.6989C22.2114 36.7953 21.9887 36.8435 21.7271 36.8435H20.8711V36.2667H21.6108C21.7493 36.2667 21.8634 36.2429 21.9532 36.1952C22.0441 36.1465 22.1117 36.0794 22.156 35.9941C22.2014 35.9076 22.2241 35.8085 22.2241 35.6965C22.2241 35.5835 22.2014 35.4849 22.156 35.4006C22.1117 35.3153 22.0441 35.2494 21.9532 35.2028C21.8623 35.1552 21.7471 35.1314 21.6074 35.1314H21.1221V37.9473H20.4023ZM23.2519 35.1363V34.5429H26.0479V35.1363H25.0056V37.9473H24.2941V35.1363H23.2519ZM27.4887 34.5429H28.3764L29.3139 36.8302H29.3538L30.2913 34.5429H31.179V37.9473H30.4808V35.7314H30.4526L29.5716 37.9306H29.0962L28.2151 35.7231H28.1869V37.9473H27.4887V34.5429ZM34.8489 36.2451C34.8489 36.6163 34.7786 36.9322 34.6378 37.1926C34.4982 37.453 34.3076 37.6519 34.066 37.7893C33.8255 37.9257 33.5551 37.9938 33.2548 37.9938C32.9523 37.9938 32.6808 37.9251 32.4403 37.7877C32.1998 37.6503 32.0098 37.4514 31.8701 37.1909C31.7305 36.9305 31.6607 36.6152 31.6607 36.2451C31.6607 35.8738 31.7305 35.558 31.8701 35.2976C32.0098 35.0372 32.1998 34.8388 32.4403 34.7025C32.6808 34.5651 32.9523 34.4964 33.2548 34.4964C33.5551 34.4964 33.8255 34.5651 34.066 34.7025C34.3076 34.8388 34.4982 35.0372 34.6378 35.2976C34.7786 35.558 34.8489 35.8738 34.8489 36.2451ZM34.1192 36.2451C34.1192 36.0046 34.0832 35.8018 34.0112 35.6367C33.9402 35.4716 33.8399 35.3463 33.7103 35.261C33.5806 35.1757 33.4288 35.133 33.2548 35.133C33.0808 35.133 32.929 35.1757 32.7993 35.261C32.6697 35.3463 32.5688 35.4716 32.4968 35.6367C32.4259 35.8018 32.3904 36.0046 32.3904 36.2451C32.3904 36.4856 32.4259 36.6884 32.4968 36.8535C32.5688 37.0186 32.6697 37.1438 32.7993 37.2292C32.929 37.3145 33.0808 37.3572 33.2548 37.3572C33.4288 37.3572 33.5806 37.3145 33.7103 37.2292C33.8399 37.1438 33.9402 37.0186 34.0112 36.8535C34.0832 36.6884 34.1192 36.4856 34.1192 36.2451ZM35.1461 37.9473V37.3688L35.2425 37.3605C35.3666 37.3505 35.4669 37.3034 35.5434 37.2192C35.6199 37.1339 35.6769 36.9981 35.7146 36.8119C35.7534 36.6246 35.7783 36.3731 35.7894 36.0572L35.8459 34.5429H38.1565V37.9473H37.4567V35.1197H36.5142L36.461 36.3049C36.4433 36.6861 36.3978 36.9975 36.3247 37.2391C36.2526 37.4807 36.1374 37.6591 35.9789 37.7744C35.8216 37.8896 35.606 37.9473 35.3323 37.9473H35.1461ZM38.6985 34.5429H39.4166V36.6839H39.4448L40.9159 34.5429H41.5459V37.9473H40.8262V35.8046H40.8012L39.3218 37.9473H38.6985V34.5429ZM44.7023 37.9473H43.9841V35.1314H43.4988C43.3602 35.1314 43.245 35.1519 43.153 35.1929C43.0621 35.2328 42.994 35.2915 42.9485 35.3691C42.9031 35.4466 42.8804 35.5419 42.8804 35.655C42.8804 35.7669 42.9031 35.8605 42.9485 35.9359C42.994 36.0113 43.0621 36.0678 43.153 36.1055C43.2439 36.1431 43.358 36.162 43.4954 36.162H44.2767V36.7404H43.3791C43.1186 36.7404 42.8959 36.6972 42.7108 36.6108C42.5258 36.5244 42.3845 36.4002 42.287 36.2384C42.1894 36.0755 42.1407 35.881 42.1407 35.655C42.1407 35.43 42.1883 35.2344 42.2836 35.0682C42.38 34.9009 42.5191 34.7717 42.7009 34.6809C42.8837 34.5889 43.1037 34.5429 43.3608 34.5429H44.7023V37.9473ZM42.8654 36.398H43.6417L42.8139 37.9473H42.0193L42.8654 36.398Z" fill="#3980A0"/>
</svg>
