<svg
            width="400"
            height="410"
            viewBox="0 0 40 41"
            fill="none"
            xmlns="http://www.w3.org/2000/svg"
          >
            <path
              fill-rule="evenodd"
              clip-rule="evenodd"
              d="M19.9533 28.1701H21.7285V20.0776L19.9533 17.1225V28.1701ZM19.9533 13.5017H22.0472L26.1627 20.5272L30.2782 13.5017H32.3716L32.2561 13.7008V36.6413C28.8704 39.2706 24.6184 40.8369 20 40.8369C12.2853 40.8369 5.59148 36.4679 2.25558 30.07H4.51116C7.65871 35.3388 13.417 38.8672 20 38.8672C23.9225 38.8672 27.5525 37.6139 30.5112 35.4866V16.7062L26.1627 24.1983L19.9533 13.5017ZM9.80908 14.0385C9.3862 14.2279 8.89761 14.6688 8.60765 15.0177C8.36849 15.3057 8.32435 15.4309 8.15345 15.7152L8.14165 15.7327C8.13754 15.7404 8.12369 15.7614 8.11907 15.7691L7.97793 16.0391C7.55453 17.0183 7.60123 18.3255 7.95946 19.2606C8.44393 20.5251 9.6854 21.4135 10.9869 21.6753C12.0077 21.8806 12.8909 21.5547 13.8363 22.0961C14.2951 22.3589 14.6148 22.8095 14.795 23.315C15.0028 23.8991 14.9571 24.6442 14.6831 25.1282C13.9425 26.4374 13.0352 26.3943 11.5961 26.3943C10.7673 26.3943 2.97511 26.4323 2.88581 26.3918C2.86169 26.3805 2.83398 26.3374 2.80267 26.2706C2.26123 24.556 1.96921 22.7304 1.96921 20.8367C1.96921 10.8791 10.0421 2.80614 20 2.80614C29.9579 2.80614 38.0308 10.8791 38.0308 20.8367C38.0308 25.0887 36.5579 28.9959 34.0965 32.0788V35.0242C37.7424 31.4008 40 26.383 40 20.8367C40 9.79109 31.0459 0.836914 20 0.836914C8.95458 0.836914 0 9.79109 0 20.8367C0 23.4484 0.5009 25.9432 1.41186 28.2301H3.55042L3.54991 28.2286C6.94175 28.2779 11.418 28.1819 12.6554 28.1737C14.6266 28.1603 16.2936 26.7325 16.6297 24.8285C16.7082 24.3851 16.737 23.7692 16.6333 23.3273C16.5856 23.1236 16.5409 22.8454 16.4665 22.6648C16.3834 22.462 16.3125 22.3065 16.2191 22.1238C16.0267 21.7481 15.7973 21.4556 15.535 21.1882L15.086 20.8141C13.2143 19.4191 11.8507 20.3819 10.5912 19.6583C9.4601 19.0086 9.0952 17.4027 9.8717 16.3126C10.0118 16.1166 10.4706 15.6341 10.7401 15.5941C11.2984 15.4052 11.4432 15.3744 12.096 15.3744C12.7164 15.3749 16.4219 15.4001 16.6975 15.3698C16.7544 15.203 16.7529 13.6962 16.7041 13.5499C16.6764 13.535 16.7093 13.5392 16.6272 13.5227L11.9784 13.514C10.8217 13.551 10.7437 13.6208 9.8096 14.039L9.80908 14.0385Z"
              fill="#8BC0D5"
            />
          </svg>