<svg width="41" height="40" viewBox="0 0 41 40" fill="none" xmlns="http://www.w3.org/2000/svg">
<g clip-path="url(#clip0_15326_4873)">
<path d="M40.8301 20C40.8301 8.95431 31.8758 0 20.8301 0C9.78439 0 0.830078 8.95431 0.830078 20C0.830078 29.9826 8.14379 38.2567 17.7051 39.7571V25.7813H12.627V20H17.7051V15.5938C17.7051 10.5813 20.691 7.81252 25.2594 7.81252C27.4476 7.81252 29.7364 8.20314 29.7364 8.20314V13.125H27.2144C24.7299 13.125 23.9551 14.6667 23.9551 16.2484V20H29.502L28.6153 25.7813H23.9551V39.7571C33.5164 38.2567 40.8301 29.9826 40.8301 20" fill="#111111"/>
<path d="M28.6153 25.7813L29.502 20H23.9551V16.2483C23.9551 14.6667 24.7299 13.125 27.2144 13.125H29.7364V8.20312C29.7364 8.20312 27.4476 7.8125 25.2594 7.8125C20.6909 7.8125 17.7051 10.5812 17.7051 15.5938V20H12.627V25.7813H17.7051V39.7571C18.7389 39.9191 19.7837 40.0003 20.8301 40C21.8932 40 22.9368 39.9168 23.9551 39.7571V25.7813H28.6153Z" fill="white"/>
</g>
<defs>
<clipPath id="clip0_15326_4873">
<rect width="40" height="40" fill="white" transform="translate(0.830078)"/>
</clipPath>
</defs>
</svg>