<svg width="41" height="40" viewBox="0 0 41 40" fill="none" xmlns="http://www.w3.org/2000/svg">
<rect x="0.162109" width="40" height="40" rx="8" fill="#111111"/>
<path d="M31.4301 31.25H26.7633V23.9417C26.7633 22.1989 26.7322 19.9555 24.3362 19.9555C21.9055 19.9555 21.5336 21.8542 21.5336 23.8148V31.2494H16.867V16.2206H21.3469V18.2744H21.4098C22.3219 16.7148 24.0243 15.7798 25.83 15.8469C30.5599 15.8469 31.432 18.9579 31.432 23.0054L31.4301 31.25ZM11.6013 14.1662C10.1157 14.1662 8.89258 12.9438 8.89258 11.4582C8.89258 9.97251 10.1151 8.75 11.6008 8.75C13.0863 8.75 14.3087 9.97223 14.3089 11.4576C14.3089 12.943 13.0867 14.1661 11.6013 14.1662ZM13.9346 31.25H9.26308V16.2206H13.9346V31.25Z" fill="white"/>
</svg>