<svg width="41" height="40" viewBox="0 0 41 40" fill="none" xmlns="http://www.w3.org/2000/svg">
<rect x="0.162109" width="40" height="40" rx="8" fill="#111111"/>
<path fill-rule="evenodd" clip-rule="evenodd" d="M17.5475 25.6628C16.5547 25.4322 15.6291 25.0988 14.7494 24.6461C14.4343 24.4833 14.1242 24.309 13.8232 24.1218C12.9356 23.5676 12.6597 22.4242 13.1931 21.5445C13.7418 20.641 14.8791 20.3473 15.7869 20.8979C16.6801 21.4381 17.6264 21.8308 18.6548 22.0162C20.6785 22.3795 22.5798 22.0449 24.3514 21.0031C24.7129 20.7902 25.0782 20.6232 25.5094 20.6257C26.3457 20.6306 27.078 21.1658 27.3208 21.9617C27.5649 22.7637 27.2609 23.6318 26.5506 24.0888C25.444 24.8008 24.2456 25.3025 22.9695 25.6169C22.9144 25.6298 22.8606 25.6457 22.7835 25.6659C22.8355 25.7221 22.8759 25.7662 22.9187 25.809C24.0529 26.9432 25.1877 28.0755 26.3206 29.2115C26.9831 29.8759 27.1226 30.7874 26.6828 31.5472C26.0496 32.6416 24.5936 32.8233 23.6815 31.9167C22.551 30.7923 21.4266 29.663 20.3004 28.5368C20.26 28.4964 20.2221 28.453 20.1322 28.3551C20.0949 28.4218 20.0747 28.4866 20.0331 28.5282C18.9044 29.6612 17.7757 30.7923 16.6421 31.9204C15.8646 32.6961 14.6772 32.6912 13.9248 31.9179C13.2365 31.2107 13.217 30.0876 13.8826 29.3455C13.9725 29.244 14.0704 29.1485 14.1658 29.0525C15.2486 27.9691 16.3308 26.8875 17.4136 25.8035C17.4509 25.7656 17.4894 25.7234 17.5475 25.6628Z" fill="white"/>
<path fill-rule="evenodd" clip-rule="evenodd" d="M20.1662 7.5C23.7174 7.5 26.6146 10.3985 26.614 13.9497C26.6134 17.5051 23.7437 20.3993 20.1686 20.4005C16.5734 20.4042 13.7183 17.5058 13.7128 13.9619C13.7067 10.4058 16.5838 7.50979 20.1662 7.5ZM22.8316 13.9558C22.8328 12.4864 21.6441 11.2879 20.1821 11.2843C18.7004 11.2806 17.4934 12.4686 17.491 13.9319C17.4885 15.3977 18.6772 16.6181 20.1117 16.6193C21.6319 16.6206 22.8303 15.4472 22.8316 13.9558Z" fill="white"/>
</svg>