<svg width="40" height="40" viewBox="0 0 40 40" fill="none" xmlns="http://www.w3.org/2000/svg">
<g clip-path="url(#clip0_15326_4877)">
<path d="M20.4961 40C31.5418 40 40.4961 31.0457 40.4961 20C40.4961 8.9543 31.5418 0 20.4961 0C9.4504 0 0.496094 8.9543 0.496094 20C0.496094 31.0457 9.4504 40 20.4961 40Z" fill="#111111"/>
<path d="M30.0622 11.1125C30.0892 11.0944 30.6668 10.8327 31.1812 11.1756C31.5782 11.4464 31.7678 11.9608 31.6324 12.4571C30.378 18.377 29.1146 24.297 27.8602 30.2169C27.8512 30.2891 27.779 30.8576 27.2646 31.1644C26.9217 31.372 26.4885 31.3991 26.1095 31.2366C26.0103 31.1915 25.911 31.1284 25.8207 31.0652C22.8427 28.8272 19.8647 26.5891 16.8867 24.3421L27.2737 15.0019C27.3007 14.9568 27.418 14.8124 27.3729 14.7222C27.3368 14.65 27.2105 14.6229 27.039 14.65C26.8766 14.668 26.7232 14.7312 26.5878 14.8215C22.3193 17.5107 18.0599 20.1999 13.7914 22.8892L7.98875 21.1294C7.74509 20.949 7.40217 20.6602 7.42924 20.3173C7.45632 20.0014 7.79022 19.7848 7.91656 19.7036C8.96337 19.0539 25.902 12.6737 30.0622 11.1125Z" fill="white"/>
<path d="M16.8876 24.3511L16.5176 30.0905C16.6529 30.0815 16.8515 30.0634 17.0771 29.9642C17.3478 29.8469 17.5283 29.6754 17.6276 29.5671C18.521 28.6827 19.4144 27.7984 20.3078 26.914L16.8876 24.3511Z" fill="#ECF0F3"/>
<path d="M16.5073 30.0903C16.3539 30.0903 16.1734 30.0633 16.029 29.9459C15.8576 29.8015 15.8034 29.594 15.7944 29.5398C15.6951 29.1338 14.901 26.5077 13.791 22.898L26.5875 14.8303C26.6416 14.7942 26.7138 14.749 26.8131 14.7129C26.9755 14.6498 27.2823 14.5776 27.3635 14.6949C27.3996 14.74 27.3816 14.8122 27.3726 14.8393C27.3726 14.8393 27.3545 14.9295 27.2733 15.0107C27.165 15.119 22.8153 19.0265 16.8863 24.3509L16.5073 30.0903Z" fill="#C4C9CE"/>
</g>
<defs>
<clipPath id="clip0_15326_4877">
<rect width="40" height="40" fill="white" transform="translate(0.496094)"/>
</clipPath>
</defs>
</svg>