<svg width="40" height="40" viewBox="0 0 40 40" fill="none" xmlns="http://www.w3.org/2000/svg">
<rect width="40" height="40" rx="8" fill="#111111"/>
<path d="M25.4951 7H21.1133V24.7101C21.1133 26.8203 19.428 28.5536 17.3308 28.5536C15.2335 28.5536 13.5483 26.8203 13.5483 24.7101C13.5483 22.6377 15.1961 20.942 17.2185 20.8667V16.4203C12.7618 16.4956 9.1665 20.1507 9.1665 24.7101C9.1665 29.3073 12.8367 33 17.3683 33C21.8998 33 25.5699 29.2696 25.5699 24.7101V15.629C27.2178 16.8348 29.2401 17.5507 31.3748 17.5884V13.142C28.0792 13.029 25.4951 10.3159 25.4951 7Z" fill="white"/>
</svg>