<svg width="40" height="40" viewBox="0 0 40 40" fill="none" xmlns="http://www.w3.org/2000/svg">
<g clip-path="url(#clip0_540_7506)">
<g clip-path="url(#clip1_540_7506)">
<g clip-path="url(#clip2_540_7506)">
<path d="M31.3777 -0.00195312H7.96308C3.65257 -0.00195312 0.158203 3.49241 0.158203 7.80293V31.2176C0.158203 35.5281 3.65257 39.0224 7.96308 39.0224H31.3777C35.6882 39.0224 39.1826 35.5281 39.1826 31.2176V7.80293C39.1826 3.49241 35.6882 -0.00195312 31.3777 -0.00195312Z" fill="#111111"/>
<g clip-path="url(#clip3_540_7506)">
<path d="M27.1096 12.0289C26.142 11.0518 24.9896 10.2771 23.7196 9.7499C22.4495 9.22268 21.0872 8.95351 19.7121 8.95806C13.9503 8.95806 9.25434 13.654 9.25434 19.4159C9.25434 21.2626 9.73977 23.0566 10.6473 24.6395L9.16992 30.0636L14.7101 28.6073C16.2403 29.441 17.9604 29.8842 19.7121 29.8842C25.4739 29.8842 30.1699 25.1882 30.1699 19.4264C30.1699 16.6299 29.083 14.0023 27.1096 12.0289ZM19.7121 28.1113C18.1503 28.1113 16.6202 27.6892 15.28 26.8978L14.9634 26.7078L11.6709 27.5731L12.5468 24.3651L12.3358 24.038C11.4678 22.6524 11.0071 21.0508 11.0061 19.4159C11.0061 14.6249 14.9106 10.7204 19.7016 10.7204C22.0232 10.7204 24.2076 11.6279 25.8433 13.2741C26.6533 14.0802 27.2953 15.0391 27.7318 16.0952C28.1684 17.1514 28.3909 18.2836 28.3865 19.4264C28.4076 24.2174 24.5031 28.1113 19.7121 28.1113ZM24.482 21.6108C24.2182 21.4842 22.9307 20.851 22.6986 20.7561C22.4558 20.6716 22.287 20.6294 22.1076 20.8827C21.9282 21.1465 21.4322 21.7375 21.2845 21.9063C21.1368 22.0857 20.9785 22.1068 20.7146 21.9696C20.4508 21.843 19.6066 21.5581 18.6146 20.6716C17.8337 19.9751 17.3167 19.1204 17.1584 18.8566C17.0106 18.5927 17.1373 18.4556 17.2744 18.3184C17.3905 18.2023 17.5383 18.0123 17.6649 17.8646C17.7915 17.7169 17.8443 17.6008 17.9287 17.4319C18.0131 17.2525 17.9709 17.1048 17.9076 16.9782C17.8443 16.8515 17.3167 15.5641 17.1056 15.0365C16.8945 14.5299 16.6729 14.5932 16.5146 14.5827H16.0081C15.8287 14.5827 15.5543 14.646 15.3116 14.9098C15.0795 15.1736 14.4041 15.8068 14.4041 17.0942C14.4041 18.3817 15.3433 19.6269 15.4699 19.7958C15.5966 19.9751 17.3167 22.6133 19.9337 23.7425C20.5564 24.0169 21.0418 24.1751 21.4217 24.2912C22.0443 24.4917 22.6141 24.4601 23.0679 24.3968C23.5744 24.3229 24.6192 23.7636 24.8302 23.1515C25.0518 22.5395 25.0518 22.0224 24.978 21.9063C24.9041 21.7902 24.7458 21.7375 24.482 21.6108Z" fill="white"/>
</g>
</g>
</g>
</g>
<defs>
<clipPath id="clip0_540_7506">
<rect width="40" height="39.02" fill="white"/>
</clipPath>
<clipPath id="clip1_540_7506">
<rect width="40" height="39.02" fill="white"/>
</clipPath>
<clipPath id="clip2_540_7506">
<rect width="40" height="39.0244" fill="white" transform="translate(0 -0.00195312)"/>
</clipPath>
<clipPath id="clip3_540_7506">
<rect width="22" height="22" fill="white" transform="translate(8.67041 8.51074)"/>
</clipPath>
</defs>
</svg>
