<svg width="129" height="44" viewBox="0 0 129 44" fill="none" xmlns="http://www.w3.org/2000/svg">
<path d="M127.684 39.5894C127.684 42.0262 126.048 44 124.024 44H4.23786C2.21484 44 0.572754 42.0262 0.572754 39.5894V4.41635C0.572754 1.98074 2.21484 0 4.23786 0H124.023C126.048 0 127.683 1.98074 127.683 4.41635L127.684 39.5894Z" fill="#141414"/>
<path d="M28.9548 21.7997C28.9273 18.8142 31.4621 17.3618 31.578 17.2941C30.1424 15.2535 27.9174 14.9747 27.1355 14.9524C25.2667 14.7607 23.4539 16.0427 22.502 16.0427C21.531 16.0427 20.0651 14.9709 18.4851 15.0024C16.4519 15.033 14.5499 16.1807 13.5067 17.9629C11.3539 21.5969 12.9595 26.9371 15.0221 29.8744C16.0539 31.313 17.2595 32.9192 18.8376 32.8627C20.3814 32.8007 20.9581 31.9031 22.8212 31.9031C24.6672 31.9031 25.2087 32.8627 26.8181 32.8266C28.475 32.8007 29.5182 31.3816 30.5139 29.93C31.7062 28.2812 32.1851 26.6573 32.2041 26.574C32.1651 26.561 28.9862 25.3781 28.9548 21.7997Z" fill="white"/>
<path d="M25.9146 13.0201C26.745 12.0077 27.3131 10.6302 27.1554 9.23242C25.9536 9.2843 24.4506 10.0429 23.5851 11.0332C22.8193 11.9058 22.1353 13.336 22.312 14.681C23.662 14.7792 25.0482 14.0168 25.9146 13.0201Z" fill="white"/>
<path d="M51.2975 32.6565H49.1399L47.9581 29.0355H43.85L42.7241 32.6565H40.6235L44.6936 20.3291H47.2075L51.2975 32.6565ZM47.6018 27.5164L46.533 24.2974C46.4199 23.9686 46.208 23.1942 45.8955 21.9752H45.8575C45.733 22.4995 45.5325 23.2739 45.257 24.2974L44.2072 27.5164H47.6018Z" fill="white"/>
<path d="M61.7644 28.1026C61.7644 29.6143 61.3455 30.8093 60.5075 31.6865C59.7569 32.4674 58.8249 32.8574 57.7124 32.8574C56.5115 32.8574 55.6489 32.4368 55.1235 31.5957H55.0855V36.2783H53.0599V26.6937C53.0599 25.7433 53.0343 24.7679 52.9849 23.7674H54.7662L54.8793 25.1764H54.9173C55.5928 24.1148 56.6179 23.585 57.9936 23.585C59.0691 23.585 59.9669 23.999 60.6852 24.8281C61.4053 25.6581 61.7644 26.7493 61.7644 28.1026ZM59.7009 28.1749C59.7009 27.3097 59.5014 26.5964 59.1004 26.0351C58.6625 25.4496 58.0744 25.1569 57.3371 25.1569C56.8374 25.1569 56.3833 25.3199 55.9776 25.6414C55.5709 25.9656 55.3049 26.3889 55.1805 26.9132C55.1178 27.1578 55.0864 27.3578 55.0864 27.5153V28.9974C55.0864 29.644 55.2897 30.1896 55.6964 30.6351C56.103 31.0807 56.6312 31.303 57.2811 31.303C58.044 31.303 58.6378 31.0159 59.0624 30.4434C59.4881 29.87 59.7009 29.1141 59.7009 28.1749Z" fill="white"/>
<path d="M72.2508 28.1026C72.2508 29.6143 71.8318 30.8093 70.9929 31.6865C70.2433 32.4674 69.3113 32.8574 68.1988 32.8574C66.9979 32.8574 66.1352 32.4368 65.6108 31.5957H65.5728V36.2783H63.5472V26.6937C63.5472 25.7433 63.5216 24.7679 63.4722 23.7674H65.2535L65.3666 25.1764H65.4046C66.0792 24.1148 67.1043 23.585 68.4809 23.585C69.5555 23.585 70.4533 23.999 71.1734 24.8281C71.8907 25.6581 72.2508 26.7493 72.2508 28.1026ZM70.1872 28.1749C70.1872 27.3097 69.9868 26.5964 69.5859 26.0351C69.1479 25.4496 68.5617 25.1569 67.8235 25.1569C67.3228 25.1569 66.8696 25.3199 66.463 25.6414C66.0564 25.9656 65.7913 26.3889 65.6668 26.9132C65.6051 27.1578 65.5728 27.3578 65.5728 27.5153V28.9974C65.5728 29.644 65.7761 30.1896 66.1808 30.6351C66.5874 31.0798 67.1157 31.303 67.7674 31.303C68.5303 31.303 69.1241 31.0159 69.5488 30.4434C69.9744 29.87 70.1872 29.1141 70.1872 28.1749Z" fill="white"/>
<path d="M83.9746 29.1995C83.9746 30.2481 83.6012 31.1012 82.8516 31.7598C82.0279 32.4796 80.8812 32.839 79.4076 32.839C78.0471 32.839 76.9565 32.5833 76.1309 32.071L76.6002 30.425C77.4895 30.9493 78.4652 31.2124 79.5283 31.2124C80.2912 31.2124 80.885 31.0438 81.3116 30.7084C81.7363 30.3731 81.9481 29.9229 81.9481 29.3616C81.9481 28.8614 81.7733 28.4399 81.4227 28.0981C81.0741 27.7563 80.4917 27.4385 79.6784 27.1449C77.4648 26.3399 76.3589 25.1607 76.3589 23.6101C76.3589 22.5967 76.7465 21.7658 77.5227 21.1192C78.2961 20.4717 79.3278 20.1484 80.618 20.1484C81.7686 20.1484 82.7243 20.3439 83.4872 20.7339L82.9808 22.3438C82.2683 21.9659 81.4626 21.7769 80.561 21.7769C79.8485 21.7769 79.2917 21.9483 78.8927 22.2892C78.5554 22.5939 78.3863 22.9654 78.3863 23.4054C78.3863 23.8926 78.5792 24.2956 78.9668 24.6124C79.3041 24.9051 79.9169 25.2219 80.8061 25.5637C81.894 25.9907 82.693 26.49 83.207 27.0625C83.7191 27.6331 83.9746 28.3473 83.9746 29.1995Z" fill="white"/>
<path d="M90.6708 25.2497H88.4382V29.5654C88.4382 30.663 88.8315 31.2114 89.6201 31.2114C89.982 31.2114 90.2823 31.1809 90.5198 31.1197L90.5758 32.6194C90.1768 32.7649 89.6514 32.838 89.0006 32.838C88.2007 32.838 87.5755 32.6 87.1242 32.1248C86.6749 31.6486 86.4487 30.8502 86.4487 29.7284V25.2478H85.1187V23.7657H86.4487V22.1382L88.4382 21.5527V23.7657H90.6708V25.2497Z" fill="white"/>
<path d="M100.745 28.1388C100.745 29.5051 100.344 30.6269 99.5442 31.5041C98.7053 32.4072 97.5918 32.8574 96.2038 32.8574C94.8661 32.8574 93.8011 32.4248 93.0068 31.5597C92.2126 30.6945 91.8154 29.6024 91.8154 28.2861C91.8154 26.9086 92.224 25.7804 93.0439 24.9032C93.8619 24.025 94.9659 23.5859 96.3539 23.5859C97.6916 23.5859 98.768 24.0185 99.5803 24.8846C100.357 25.7248 100.745 26.8095 100.745 28.1388ZM98.6436 28.2027C98.6436 27.3829 98.464 26.6798 98.1001 26.0935C97.6754 25.3839 97.0683 25.0301 96.2817 25.0301C95.4675 25.0301 94.849 25.3848 94.4243 26.0935C94.0604 26.6808 93.8809 27.3949 93.8809 28.2397C93.8809 29.0595 94.0604 29.7626 94.4243 30.348C94.8623 31.0576 95.4741 31.4115 96.2636 31.4115C97.037 31.4115 97.6441 31.0502 98.0821 30.3295C98.4554 29.732 98.6436 29.0216 98.6436 28.2027Z" fill="white"/>
<path d="M107.328 25.5043C107.128 25.4682 106.914 25.4496 106.69 25.4496C105.977 25.4496 105.426 25.7118 105.039 26.237C104.701 26.7002 104.532 27.2856 104.532 27.9924V32.6564H102.508L102.527 26.5668C102.527 25.5423 102.501 24.6095 102.451 23.7684H104.215L104.289 25.4691H104.345C104.559 24.8846 104.896 24.414 105.358 24.0611C105.809 23.7434 106.297 23.585 106.822 23.585C107.009 23.585 107.178 23.5979 107.328 23.6211V25.5043Z" fill="white"/>
<path d="M116.388 27.7914C116.388 28.1453 116.364 28.4436 116.314 28.6872H110.237C110.261 29.5653 110.554 30.2369 111.119 30.7001C111.631 31.1141 112.293 31.3216 113.106 31.3216C114.006 31.3216 114.827 31.1817 115.565 30.9011L115.882 32.272C115.02 32.6388 114.001 32.8213 112.826 32.8213C111.412 32.8213 110.303 32.4156 109.495 31.6051C108.689 30.7945 108.286 29.7061 108.286 28.3407C108.286 27.0004 108.661 25.8841 109.412 24.994C110.199 24.0436 111.262 23.5684 112.6 23.5684C113.914 23.5684 114.909 24.0436 115.584 24.994C116.119 25.7489 116.388 26.6826 116.388 27.7914ZM114.456 27.2792C114.47 26.6937 114.338 26.188 114.063 25.7609C113.712 25.2116 113.174 24.9375 112.449 24.9375C111.787 24.9375 111.248 25.2052 110.837 25.7424C110.499 26.1695 110.299 26.6817 110.237 27.2783H114.456V27.2792Z" fill="white"/>
<path d="M43.2739 12.7328H44.0767C44.2149 12.7509 44.3552 12.7387 44.4887 12.6968C44.6222 12.655 44.746 12.5845 44.8524 12.4897C44.9587 12.3949 45.0453 12.2779 45.1067 12.1461C45.168 12.0143 45.2028 11.8705 45.2088 11.7238C45.2088 11.1401 44.7921 10.763 44.0856 10.763C43.944 10.7422 43.7998 10.7515 43.6617 10.7903C43.5235 10.8291 43.3942 10.8967 43.2812 10.9891C43.1683 11.0815 43.0741 11.1969 43.0041 11.3283C42.9341 11.4597 42.8899 11.6046 42.8739 11.7544H41.9924C42.0076 11.4825 42.0757 11.2169 42.1925 10.9739C42.3093 10.731 42.4722 10.516 42.6713 10.3424C42.8703 10.1687 43.1011 10.0401 43.3493 9.96459C43.5975 9.88904 43.8578 9.86817 44.114 9.90326C45.2962 9.90326 46.1286 10.6009 46.1286 11.6052C46.1314 11.9417 46.0246 12.2689 45.8261 12.5324C45.6276 12.7958 45.3493 12.9796 45.0378 13.0529V13.1274C45.4071 13.1447 45.7549 13.3154 46.0052 13.6022C46.2554 13.889 46.3878 14.2686 46.3733 14.658C46.346 14.9379 46.2659 15.2092 46.1378 15.4561C46.0097 15.703 45.8361 15.9204 45.6273 16.0957C45.4184 16.2709 45.1784 16.4005 44.9215 16.4767C44.6645 16.5529 44.3957 16.5743 44.1308 16.5396C43.8653 16.5778 43.5953 16.5592 43.3368 16.485C43.0782 16.4108 42.8366 16.2825 42.6261 16.1077C42.4156 15.9329 42.2407 15.7153 42.1118 15.4677C41.9828 15.2202 41.9024 14.9478 41.8755 14.6668H42.7707C42.8248 15.2722 43.3525 15.6628 44.1308 15.6628C44.9091 15.6628 45.4171 15.2241 45.4171 14.6057C45.4171 13.9785 44.9385 13.5921 44.1023 13.5921H43.2739V12.7328Z" fill="white"/>
<path d="M47.3904 15.035C47.3904 14.1752 47.9987 13.6796 49.0757 13.6091L50.3031 13.5346V13.1223C50.3031 12.6178 49.9876 12.3329 49.3754 12.3329C48.8762 12.3329 48.5313 12.5261 48.4311 12.8638H47.5653C47.6567 12.0434 48.3898 11.5172 49.4177 11.5172C50.5537 11.5172 51.1944 12.1133 51.1944 13.1223V16.3858H50.3326V15.7146H50.2618C50.1182 15.9554 49.9165 16.1516 49.6774 16.2834C49.4383 16.4152 49.1703 16.4777 48.9008 16.4645C48.7106 16.4854 48.5183 16.464 48.3364 16.4017C48.1545 16.3395 47.987 16.2377 47.8447 16.103C47.7024 15.9683 47.5885 15.8037 47.5102 15.6198C47.432 15.4358 47.3911 15.2366 47.3904 15.035ZM50.3031 14.6269V14.2276L49.1965 14.3021C48.5725 14.3462 48.2895 14.5699 48.2895 14.991C48.2895 15.4209 48.6433 15.6711 49.1297 15.6711C49.2723 15.6863 49.4163 15.6711 49.5531 15.6265C49.69 15.5818 49.8169 15.5086 49.9264 15.4112C50.0359 15.3138 50.1256 15.1941 50.1904 15.0594C50.2551 14.9247 50.2934 14.7776 50.3031 14.6269Z" fill="white"/>
<path d="M53.5676 12.406V16.3889H52.6734V11.6125H55.6569V12.4059L53.5676 12.406Z" fill="white"/>
<path d="M61.0774 13.9955C61.0774 15.513 60.3492 16.4645 59.2053 16.4645C58.9246 16.4847 58.6441 16.42 58.3971 16.2778C58.15 16.1357 57.9467 15.9221 57.8109 15.6622H57.7401V17.9738H56.8459V11.6093H57.7067V12.3987H57.7736C57.9118 12.1298 58.1178 11.9063 58.3689 11.753C58.62 11.5997 58.9064 11.5226 59.1965 11.5301C60.3492 11.5301 61.0774 12.4774 61.0774 13.9955ZM60.1576 13.9955C60.1576 12.9865 59.7046 12.3769 58.9469 12.3769C58.1942 12.3769 57.7235 12.9995 57.7235 13.9996C57.7235 14.9951 58.1942 15.6182 58.943 15.6182C59.7046 15.6182 60.1576 15.0086 60.1576 13.9955Z" fill="white"/>
<path d="M62.2676 18.0997V17.2881C62.3644 17.301 62.4619 17.3069 62.5594 17.3057C62.7499 17.3206 62.939 17.2608 63.0902 17.1377C63.2415 17.0147 63.3443 16.8371 63.379 16.6391L63.4458 16.4065L61.8057 11.6125H62.7795L63.9156 15.4064H63.9863L65.1184 11.6125H66.0667L64.3775 16.5863C63.9903 17.7485 63.5618 18.1215 62.6381 18.1215C62.5634 18.1214 62.3511 18.1126 62.2676 18.0997Z" fill="white"/>
<path d="M66.7613 15.0295H67.6517C67.7391 15.4506 68.1136 15.6701 68.6373 15.6701C69.2328 15.6701 69.5984 15.3936 69.5984 14.9637C69.5984 14.5032 69.2702 14.2836 68.6373 14.2836H67.9592V13.5513H68.6255C69.166 13.5513 69.4412 13.3322 69.4412 12.9329C69.4412 12.5822 69.1748 12.3144 68.6255 12.3144C68.1253 12.3144 67.7598 12.5382 67.7018 12.9153H66.84C66.9044 12.482 67.1276 12.0927 67.4615 11.8311C67.7954 11.5694 68.2134 11.4564 68.6255 11.5163C69.7025 11.5163 70.3187 12.0296 70.3187 12.8365C70.3237 13.0612 70.2554 13.281 70.1252 13.459C69.995 13.6369 69.8107 13.7624 69.6033 13.8144V13.889C69.8503 13.9226 70.077 14.0506 70.2404 14.2487C70.4038 14.4468 70.4925 14.7012 70.4897 14.9637C70.4897 15.8717 69.7566 16.4725 68.6373 16.4725C67.6477 16.4724 66.8439 15.9944 66.7613 15.0295Z" fill="white"/>
<path d="M71.7792 16.3889V11.6125H72.6655V14.8978H72.7363L74.8245 11.6125H75.7109V16.3889H74.8245V13.0861H74.7577L72.6655 16.389L71.7792 16.3889Z" fill="white"/>
<path d="M80.5957 12.4059H79.1688V16.3889H78.2736V12.4059H76.8467V11.6125H80.5957V12.4059Z" fill="white"/>
<path d="M85.411 15.0962C85.2891 15.5328 85.0257 15.9103 84.6666 16.1629C84.3076 16.4154 83.8757 16.527 83.4466 16.4781C83.148 16.4864 82.8514 16.4261 82.5772 16.3015C82.3029 16.1768 82.0578 15.9907 81.8586 15.7562C81.6595 15.5216 81.5111 15.2441 81.4239 14.9431C81.3366 14.642 81.3126 14.3245 81.3534 14.0127C81.3137 13.6999 81.3382 13.3818 81.4252 13.0798C81.5122 12.7778 81.6598 12.4991 81.8579 12.2625C82.056 12.0259 82.3 11.8369 82.5734 11.7083C82.8468 11.5797 83.1433 11.5146 83.4426 11.5173C84.7034 11.5173 85.465 12.4253 85.465 13.9252V14.2541H82.2654V14.3069C82.2512 14.4822 82.272 14.6587 82.3264 14.8251C82.3808 14.9914 82.4676 15.1439 82.5813 15.2728C82.6949 15.4017 82.8329 15.5041 82.9863 15.5734C83.1397 15.6427 83.3052 15.6774 83.4721 15.6753C83.6859 15.7022 83.9024 15.6615 84.0942 15.5584C84.286 15.4553 84.4443 15.2944 84.5492 15.0962L85.411 15.0962ZM82.2654 13.5569H84.5531C84.5644 13.3967 84.5437 13.2358 84.4925 13.0844C84.4413 12.9331 84.3607 12.7947 84.2557 12.6782C84.1508 12.5617 84.0239 12.4696 83.8832 12.4078C83.7425 12.3461 83.5911 12.316 83.4387 12.3196C83.284 12.3174 83.1304 12.3478 82.9871 12.4093C82.8437 12.4707 82.7135 12.5617 82.6042 12.6771C82.4948 12.7924 82.4084 12.9297 82.3503 13.0808C82.2921 13.232 82.2632 13.3938 82.2654 13.5569Z" fill="white"/>
<path d="M89.2027 11.6125H91.2457C92.1321 11.6125 92.6519 12.0859 92.6519 12.827C92.6533 13.0622 92.578 13.2908 92.4387 13.4744C92.2993 13.6581 92.1044 13.7857 91.8864 13.836V13.9106C92.151 13.9282 92.3991 14.0523 92.5794 14.2572C92.7598 14.4621 92.8585 14.7322 92.8553 15.0117C92.8553 15.8451 92.2608 16.3889 91.2663 16.3889H89.2027V11.6125ZM90.0891 12.3361V13.5729H90.9755C91.5159 13.5729 91.7744 13.3538 91.7744 12.9498C91.7744 12.5774 91.5494 12.336 91.0747 12.336L90.0891 12.3361ZM90.0891 14.2659V15.6654H91.1494C91.6781 15.6654 91.9611 15.4194 91.9611 14.9677C91.9611 14.4897 91.6408 14.2659 91.0374 14.2659L90.0891 14.2659Z" fill="white"/>
</svg>
