<svg width="128" height="44" viewBox="0 0 128 44" fill="none" xmlns="http://www.w3.org/2000/svg">
<path d="M122.651 44H4.71735C2.12399 44 0 41.5236 0 38.5V5.50001C0 2.47638 2.12399 7.04954e-06 4.71735 7.04954e-06H122.651C125.244 7.04954e-06 127.368 2.47638 127.368 5.50001V38.5C127.368 41.5236 125.244 44 122.651 44Z" fill="#141414"/>
<path d="M64.1793 24.3556C61.9509 24.3556 60.1305 26.0114 60.1305 28.2959C60.1305 30.5619 61.9509 32.2351 64.1793 32.2351C66.4125 32.2351 68.2329 30.5619 68.2329 28.2959C68.2329 26.0114 66.4125 24.3556 64.1793 24.3556ZM64.1793 30.6835C62.9566 30.6835 61.9047 29.6981 61.9047 28.2959C61.9047 26.8752 62.9566 25.9072 64.1793 25.9072C65.4021 25.9072 66.4587 26.8752 66.4587 28.2959C66.4587 29.6981 65.4021 30.6835 64.1793 30.6835ZM55.3452 24.3556C53.112 24.3556 51.2964 26.0114 51.2964 28.2959C51.2964 30.5619 53.112 32.2351 55.3452 32.2351C57.5771 32.2351 59.394 30.5619 59.394 28.2959C59.394 26.0114 57.5771 24.3556 55.3452 24.3556ZM55.3452 30.6835C54.1213 30.6835 53.0658 29.6981 53.0658 28.2959C53.0658 26.8752 54.1213 25.9072 55.3452 25.9072C56.5679 25.9072 57.6198 26.8752 57.6198 28.2959C57.6198 29.6981 56.5679 30.6835 55.3452 30.6835ZM44.8329 25.5633V27.2376H48.928C48.8082 28.1732 48.488 28.861 47.997 29.3404C47.3993 29.9193 46.4683 30.5619 44.8329 30.5619C42.3128 30.5619 40.3393 28.5761 40.3393 26.1156C40.3393 23.6551 42.3128 21.6693 44.8329 21.6693C46.1956 21.6693 47.187 22.1892 47.9188 22.8631L49.1272 21.6832C48.1038 20.7291 46.7423 19.9961 44.8329 19.9961C41.3771 19.9961 38.4727 22.7415 38.4727 26.1156C38.4727 29.4897 41.3771 32.2351 44.8329 32.2351C46.7008 32.2351 48.1038 31.6376 49.2067 30.5168C50.3369 29.4133 50.6891 27.8617 50.6891 26.6089C50.6891 26.2198 50.6559 25.862 50.5966 25.5633H44.8329ZM87.8189 26.8613C87.4857 25.9801 86.4574 24.3556 84.3631 24.3556C82.2876 24.3556 80.5597 25.9524 80.5597 28.2959C80.5597 30.5029 82.2698 32.2351 84.5623 32.2351C86.4159 32.2351 87.4857 31.1316 87.9256 30.489L86.55 29.5939C86.091 30.2493 85.466 30.6835 84.5623 30.6835C83.6645 30.6835 83.0206 30.2817 82.6078 29.4897L88.0051 27.3094L87.8189 26.8613ZM82.3161 28.1732C82.2699 26.654 83.5246 25.8759 84.4235 25.8759C85.128 25.8759 85.7257 26.2198 85.925 26.7119L82.3161 28.1732ZM77.9293 31.9954H79.7034V20.4165H77.9293V31.9954ZM75.0237 25.2333H74.9644C74.5659 24.7725 73.8057 24.3556 72.8427 24.3556C70.8219 24.3556 68.9741 26.0878 68.9741 28.3087C68.9741 30.5168 70.8219 32.2351 72.8427 32.2351C73.8057 32.2351 74.5659 31.8148 74.9644 31.34H75.0237V31.9051C75.0237 33.4115 74.1994 34.2209 72.87 34.2209C71.786 34.2209 71.1136 33.4567 70.8361 32.814L69.2932 33.4428C69.7379 34.4872 70.9155 35.7725 72.87 35.7725C74.9502 35.7725 76.7054 34.5775 76.7054 31.67V24.5953H75.0237V25.2333ZM72.9945 30.6835C71.7718 30.6835 70.7483 29.6843 70.7483 28.3087C70.7483 26.9204 71.7718 25.9072 72.9945 25.9072C74.1994 25.9072 75.1494 26.9204 75.1494 28.3087C75.1494 29.6843 74.1994 30.6835 72.9945 30.6835ZM96.1253 20.4165H91.882V31.9954H93.6514V27.6081H96.1253C98.0904 27.6081 100.018 26.2198 100.018 24.0117C100.018 21.8048 98.0857 20.4165 96.1253 20.4165ZM96.1716 25.9975H93.6514V22.0271H96.1716C97.4927 22.0271 98.247 23.0981 98.247 24.0117C98.247 24.9079 97.4927 25.9975 96.1716 25.9975ZM107.11 24.3336C105.831 24.3336 104.502 24.8848 103.955 26.1064L105.525 26.749C105.863 26.1064 106.485 25.8979 107.142 25.8979C108.06 25.8979 108.991 26.4364 109.005 27.387V27.5086C108.685 27.3279 107.999 27.0605 107.156 27.0605C105.465 27.0605 103.741 27.9694 103.741 29.6657C103.741 31.2173 105.127 32.2166 106.684 32.2166C107.875 32.2166 108.532 31.692 108.944 31.0818H109.005V31.9769H110.714V27.5352C110.714 25.4823 109.144 24.3336 107.11 24.3336ZM106.896 30.6789C106.317 30.6789 105.511 30.3987 105.511 29.6981C105.511 28.8019 106.517 28.458 107.387 28.458C108.166 28.458 108.532 28.6259 109.005 28.8471C108.866 29.9193 107.921 30.6789 106.896 30.6789ZM116.94 24.5872L114.906 29.6067H114.846L112.743 24.5872H110.835L113.994 31.6017L112.191 35.505H114.04L118.909 24.5872H116.94ZM100.99 31.9954H102.764V20.4165H100.99V31.9954Z" fill="white"/>
<path d="M9.43608 10.0313C9.15738 10.3161 8.99609 10.7596 8.99609 11.3339V31.8194C8.99609 32.3937 9.15738 32.8372 9.43608 33.122L9.50487 33.1846L21.2624 21.7098V21.4389L9.50487 9.96415L9.43608 10.0313Z" fill="url(#paint0_linear_532_2044)"/>
<path d="M25.1775 25.5361L21.2627 21.7093V21.4383L25.1823 17.6115L25.27 17.6613L29.9118 20.2399C31.2365 20.9717 31.2365 22.1759 29.9118 22.9123L25.27 25.4863L25.1775 25.5361Z" fill="url(#paint1_linear_532_2044)"/>
<path d="M25.2697 25.486L21.2623 21.5735L9.43604 33.1212C9.87602 33.5727 10.5935 33.6272 11.4095 33.1756L25.2697 25.486Z" fill="url(#paint2_linear_532_2044)"/>
<path d="M25.2697 17.6617L11.4095 9.97212C10.5935 9.52517 9.87602 9.57959 9.43604 10.0312L21.2623 21.5742L25.2697 17.6617Z" fill="url(#paint3_linear_532_2044)"/>
<path d="M39.8889 17.3756H39.2031V15.4967H39.7856C40.0477 15.2121 40.2447 14.8741 40.3632 14.5058C40.4816 14.1376 40.5185 13.748 40.4714 13.364V10.5456H44.2293V15.4873H44.8588V17.3662H44.1636V16.1825H39.8889V17.3756ZM41.1948 13.364C41.2367 14.1187 41.0501 14.8685 40.6593 15.5154H43.4777V11.2408H41.1948V13.364Z" fill="white"/>
<path d="M50.5063 15.448C50.2357 15.7193 49.9143 15.9345 49.5604 16.0813C49.2066 16.2282 48.8272 16.3038 48.4441 16.3038C48.061 16.3038 47.6816 16.2282 47.3278 16.0813C46.9739 15.9345 46.6525 15.7193 46.382 15.448C45.8445 14.8866 45.5445 14.1395 45.5445 13.3623C45.5445 12.5852 45.8445 11.838 46.382 11.2767C46.6525 11.0054 46.9739 10.7902 47.3278 10.6433C47.6816 10.4965 48.061 10.4209 48.4441 10.4209C48.8272 10.4209 49.2066 10.4965 49.5604 10.6433C49.9143 10.7902 50.2357 11.0054 50.5063 11.2767C50.7777 11.551 50.9914 11.8769 51.135 12.235C51.2786 12.5932 51.3491 12.9765 51.3424 13.3623C51.3535 13.7487 51.285 14.1333 51.1412 14.4921C50.9973 14.8509 50.7812 15.1763 50.5063 15.448ZM46.9081 14.9782C47.106 15.1838 47.3441 15.3466 47.6075 15.4565C47.8709 15.5664 48.154 15.621 48.4394 15.6171C48.725 15.6227 49.0087 15.5689 49.2723 15.4589C49.536 15.3489 49.7738 15.1852 49.9708 14.9782C50.3761 14.5377 50.6011 13.961 50.6011 13.3623C50.6011 12.7637 50.3761 12.1869 49.9708 11.7464C49.7738 11.5395 49.536 11.3758 49.2723 11.2658C49.0087 11.1558 48.725 11.1019 48.4394 11.1076C48.154 11.1036 47.8709 11.1583 47.6075 11.2682C47.3441 11.3781 47.106 11.5408 46.9081 11.7464C46.5087 12.1899 46.2876 12.7655 46.2876 13.3623C46.2876 13.9591 46.5087 14.5348 46.9081 14.9782Z" fill="white"/>
<path d="M54.9844 16.3032C54.6042 16.3091 54.2268 16.2381 53.8749 16.0944C53.5229 15.9508 53.2037 15.7373 52.9363 15.467C52.3942 14.9005 52.0917 14.1467 52.0917 13.3626C52.0917 12.5785 52.3942 11.8247 52.9363 11.2582C53.208 10.9832 53.5334 10.7671 53.8922 10.6233C54.251 10.4795 54.6356 10.411 55.0219 10.4221C55.4153 10.4109 55.8059 10.4898 56.1641 10.6526C56.5223 10.8154 56.8386 11.0579 57.0888 11.3615L56.5909 11.8501C56.4063 11.6128 56.1675 11.4232 55.8945 11.2973C55.6215 11.1715 55.3223 11.1129 55.0219 11.1267C54.7328 11.1193 54.4451 11.1713 54.1769 11.2796C53.9086 11.3879 53.6655 11.5501 53.4624 11.7561C53.0577 12.2007 52.8335 12.7802 52.8335 13.3814C52.8335 13.9826 53.0577 14.5621 53.4624 15.0067C53.6655 15.2127 53.9086 15.3749 54.1769 15.4832C54.4451 15.5915 54.7328 15.6435 55.0219 15.6362C55.3448 15.627 55.6617 15.5474 55.9505 15.403C56.2394 15.2585 56.4932 15.0528 56.6942 14.8L57.2015 15.2979C56.9442 15.6064 56.6239 15.8562 56.2621 16.0307C55.8624 16.2174 55.4254 16.3106 54.9844 16.3032Z" fill="white"/>
<path d="M60.155 16.1825H59.4316V11.2408H57.8533V10.5456H61.7239V11.2408H60.155V16.1825Z" fill="white"/>
<path d="M66.7032 10.5456L64.5706 15.2994C64.5188 15.49 64.4263 15.667 64.2993 15.8183C64.1724 15.9696 64.0141 16.0914 63.8353 16.1754C63.6566 16.2594 63.4617 16.3036 63.2642 16.3048C63.0668 16.306 62.8714 16.2643 62.6916 16.1825L62.8795 15.5154C62.9945 15.58 63.1235 15.6155 63.2553 15.6188C63.3943 15.6258 63.5321 15.5897 63.6499 15.5154C63.764 15.4205 63.8514 15.2974 63.9035 15.1584L64.1102 14.7075L62.2313 10.5456H63.0862L64.4766 13.7774L65.8483 10.5456H66.7032Z" fill="white"/>
<path d="M67.5193 16.1825V10.5456H71.5966V16.1825H70.8732V11.2408H68.2427V16.1825H67.5193Z" fill="white"/>
<path d="M72.8847 16.1825V10.5456H73.6081V12.9601H76.4265V10.5456H77.1593V16.1825H76.4265V13.6365H73.6081V16.1825H72.8847Z" fill="white"/>
<path d="M83.0595 15.448C82.7882 15.7195 82.466 15.935 82.1114 16.082C81.7567 16.2289 81.3766 16.3046 80.9927 16.3046C80.6088 16.3046 80.2287 16.2289 79.874 16.082C79.5194 15.935 79.1972 15.7195 78.9259 15.448C78.3884 14.8866 78.0884 14.1395 78.0884 13.3623C78.0884 12.5852 78.3884 11.838 78.9259 11.2767C79.1964 11.0054 79.5178 10.7902 79.8717 10.6433C80.2255 10.4965 80.6049 10.4209 80.988 10.4209C81.3711 10.4209 81.7505 10.4965 82.1043 10.6433C82.4582 10.7902 82.7796 11.0054 83.0502 11.2767C83.5834 11.8402 83.8805 12.5865 83.8805 13.3623C83.8805 14.1381 83.5834 14.8845 83.0502 15.448H83.0595ZM79.4614 14.9782C79.6583 15.1852 79.8961 15.3489 80.1598 15.4589C80.4234 15.5689 80.7071 15.6227 80.9927 15.6171C81.2781 15.621 81.5612 15.5664 81.8246 15.4565C82.088 15.3466 82.3261 15.1838 82.524 14.9782C82.9235 14.5348 83.1445 13.9591 83.1445 13.3623C83.1445 12.7655 82.9235 12.1899 82.524 11.7464C82.3261 11.5408 82.088 11.3781 81.8246 11.2682C81.5612 11.1583 81.2781 11.1036 80.9927 11.1076C80.7071 11.1019 80.4234 11.1558 80.1598 11.2658C79.8961 11.3758 79.6583 11.5395 79.4614 11.7464C79.056 12.1869 78.831 12.7637 78.831 13.3623C78.831 13.961 79.056 14.5377 79.4614 14.9782Z" fill="white"/>
<path d="M86.8449 16.1826V10.5457H88.8836C89.3062 10.5415 89.7151 10.6956 90.0297 10.9779C90.1867 11.1141 90.3119 11.2832 90.3963 11.4731C90.4807 11.6631 90.5223 11.8692 90.5183 12.077C90.5205 12.3301 90.4487 12.5783 90.3116 12.791C90.1729 12.9928 89.981 13.1521 89.7573 13.2514C90.0285 13.3441 90.2668 13.5139 90.4431 13.7399C90.6158 13.9702 90.7082 14.2507 90.7062 14.5385C90.711 14.755 90.668 14.97 90.5803 15.1681C90.4926 15.3662 90.3624 15.5426 90.1988 15.6846C89.8728 15.9881 89.4417 16.1531 88.9963 16.145L86.8449 16.1826ZM87.5683 12.9602H88.8836C89.0066 12.9673 89.1297 12.9465 89.2436 12.8993C89.3575 12.8521 89.4592 12.7798 89.5412 12.6877C89.7005 12.5316 89.7917 12.3189 89.7949 12.0958C89.8037 11.8721 89.7264 11.6535 89.5788 11.4852C89.4998 11.3976 89.4024 11.3285 89.2936 11.2831C89.1847 11.2376 89.0672 11.2168 88.9493 11.2221H87.5965L87.5683 12.9602ZM87.5683 15.4873H89.0339C89.1611 15.4916 89.2877 15.4677 89.4047 15.4174C89.5216 15.367 89.626 15.2915 89.7103 15.1961C89.8725 15.0228 89.9632 14.7946 89.964 14.5573C89.9583 14.3219 89.8644 14.0973 89.7009 13.9278C89.6103 13.8327 89.5008 13.7577 89.3795 13.7075C89.2581 13.6573 89.1276 13.6332 88.9963 13.6366H87.5683V15.4873Z" fill="white"/>
<path d="M39.8889 17.3756H39.2031V15.4967H39.7856C40.0477 15.2121 40.2447 14.8741 40.3632 14.5058C40.4816 14.1376 40.5185 13.748 40.4714 13.364V10.5456H44.2293V15.4873H44.8588V17.3662H44.1636V16.1825H39.8889V17.3756ZM41.1948 13.364C41.2367 14.1187 41.0501 14.8685 40.6593 15.5154H43.4777V11.2408H41.1948V13.364Z" stroke="white"/>
<path d="M50.5063 15.448C50.2357 15.7193 49.9143 15.9345 49.5604 16.0813C49.2066 16.2282 48.8272 16.3038 48.4441 16.3038C48.061 16.3038 47.6816 16.2282 47.3278 16.0813C46.9739 15.9345 46.6525 15.7193 46.382 15.448C45.8445 14.8866 45.5445 14.1395 45.5445 13.3623C45.5445 12.5852 45.8445 11.838 46.382 11.2767C46.6525 11.0054 46.9739 10.7902 47.3278 10.6433C47.6816 10.4965 48.061 10.4209 48.4441 10.4209C48.8272 10.4209 49.2066 10.4965 49.5604 10.6433C49.9143 10.7902 50.2357 11.0054 50.5063 11.2767C50.7777 11.551 50.9914 11.8769 51.135 12.235C51.2786 12.5932 51.3491 12.9765 51.3424 13.3623C51.3535 13.7487 51.285 14.1333 51.1412 14.4921C50.9973 14.8509 50.7812 15.1763 50.5063 15.448ZM46.9081 14.9782C47.106 15.1838 47.3441 15.3466 47.6075 15.4565C47.8709 15.5664 48.154 15.621 48.4394 15.6171C48.725 15.6227 49.0087 15.5689 49.2723 15.4589C49.536 15.3489 49.7738 15.1852 49.9708 14.9782C50.3761 14.5377 50.6011 13.961 50.6011 13.3623C50.6011 12.7637 50.3761 12.1869 49.9708 11.7464C49.7738 11.5395 49.536 11.3758 49.2723 11.2658C49.0087 11.1558 48.725 11.1019 48.4394 11.1076C48.154 11.1036 47.8709 11.1583 47.6075 11.2682C47.3441 11.3781 47.106 11.5408 46.9081 11.7464C46.5087 12.1899 46.2876 12.7655 46.2876 13.3623C46.2876 13.9591 46.5087 14.5348 46.9081 14.9782Z" stroke="white"/>
<path d="M54.9844 16.3032C54.6042 16.3091 54.2268 16.2381 53.8749 16.0944C53.5229 15.9508 53.2037 15.7373 52.9363 15.467C52.3942 14.9005 52.0917 14.1467 52.0917 13.3626C52.0917 12.5785 52.3942 11.8247 52.9363 11.2582C53.208 10.9832 53.5334 10.7671 53.8922 10.6233C54.251 10.4795 54.6356 10.411 55.0219 10.4221C55.4153 10.4109 55.8059 10.4898 56.1641 10.6526C56.5223 10.8154 56.8386 11.0579 57.0888 11.3615L56.5909 11.8501C56.4063 11.6128 56.1675 11.4232 55.8945 11.2973C55.6215 11.1715 55.3223 11.1129 55.0219 11.1267C54.7328 11.1193 54.4451 11.1713 54.1769 11.2796C53.9086 11.3879 53.6655 11.5501 53.4624 11.7561C53.0577 12.2007 52.8335 12.7802 52.8335 13.3814C52.8335 13.9826 53.0577 14.5621 53.4624 15.0067C53.6655 15.2127 53.9086 15.3749 54.1769 15.4832C54.4451 15.5915 54.7328 15.6435 55.0219 15.6362C55.3448 15.627 55.6617 15.5474 55.9505 15.403C56.2394 15.2585 56.4932 15.0528 56.6942 14.8L57.2015 15.2979C56.9442 15.6064 56.6239 15.8562 56.2621 16.0307C55.8624 16.2174 55.4254 16.3106 54.9844 16.3032Z" stroke="white"/>
<path d="M60.155 16.1825H59.4316V11.2408H57.8533V10.5456H61.7239V11.2408H60.155V16.1825Z" stroke="white"/>
<path d="M66.7032 10.5456L64.5706 15.2994C64.5188 15.49 64.4263 15.667 64.2993 15.8183C64.1724 15.9696 64.0141 16.0914 63.8353 16.1754C63.6566 16.2594 63.4617 16.3036 63.2642 16.3048C63.0668 16.306 62.8714 16.2643 62.6916 16.1825L62.8795 15.5154C62.9945 15.58 63.1235 15.6155 63.2553 15.6188C63.3943 15.6258 63.5321 15.5897 63.6499 15.5154C63.764 15.4205 63.8514 15.2974 63.9035 15.1584L64.1102 14.7075L62.2313 10.5456H63.0862L64.4766 13.7774L65.8483 10.5456H66.7032Z" stroke="white"/>
<path d="M67.5193 16.1825V10.5456H71.5966V16.1825H70.8732V11.2408H68.2427V16.1825H67.5193Z" stroke="white"/>
<path d="M72.8847 16.1825V10.5456H73.6081V12.9601H76.4265V10.5456H77.1593V16.1825H76.4265V13.6365H73.6081V16.1825H72.8847Z" stroke="white"/>
<path d="M83.0595 15.448C82.7882 15.7195 82.466 15.935 82.1114 16.082C81.7567 16.2289 81.3766 16.3046 80.9927 16.3046C80.6088 16.3046 80.2287 16.2289 79.874 16.082C79.5194 15.935 79.1972 15.7195 78.9259 15.448C78.3884 14.8866 78.0884 14.1395 78.0884 13.3623C78.0884 12.5852 78.3884 11.838 78.9259 11.2767C79.1964 11.0054 79.5178 10.7902 79.8717 10.6433C80.2255 10.4965 80.6049 10.4209 80.988 10.4209C81.3711 10.4209 81.7505 10.4965 82.1043 10.6433C82.4582 10.7902 82.7796 11.0054 83.0502 11.2767C83.5834 11.8402 83.8805 12.5865 83.8805 13.3623C83.8805 14.1381 83.5834 14.8845 83.0502 15.448H83.0595ZM79.4614 14.9782C79.6583 15.1852 79.8961 15.3489 80.1598 15.4589C80.4234 15.5689 80.7071 15.6227 80.9927 15.6171C81.2781 15.621 81.5612 15.5664 81.8246 15.4565C82.088 15.3466 82.3261 15.1838 82.524 14.9782C82.9235 14.5348 83.1445 13.9591 83.1445 13.3623C83.1445 12.7655 82.9235 12.1899 82.524 11.7464C82.3261 11.5408 82.088 11.3781 81.8246 11.2682C81.5612 11.1583 81.2781 11.1036 80.9927 11.1076C80.7071 11.1019 80.4234 11.1558 80.1598 11.2658C79.8961 11.3758 79.6583 11.5395 79.4614 11.7464C79.056 12.1869 78.831 12.7637 78.831 13.3623C78.831 13.961 79.056 14.5377 79.4614 14.9782Z" stroke="white"/>
<path d="M86.8449 16.1826V10.5457H88.8836C89.3062 10.5415 89.7151 10.6956 90.0297 10.9779C90.1867 11.1141 90.3119 11.2832 90.3963 11.4731C90.4807 11.6631 90.5223 11.8692 90.5183 12.077C90.5205 12.3301 90.4487 12.5783 90.3116 12.791C90.1729 12.9928 89.981 13.1521 89.7573 13.2514C90.0285 13.3441 90.2668 13.5139 90.4431 13.7399C90.6158 13.9702 90.7082 14.2507 90.7062 14.5385C90.711 14.755 90.668 14.97 90.5803 15.1681C90.4926 15.3662 90.3624 15.5426 90.1988 15.6846C89.8728 15.9881 89.4417 16.1531 88.9963 16.145L86.8449 16.1826ZM87.5683 12.9602H88.8836C89.0066 12.9673 89.1297 12.9465 89.2436 12.8993C89.3575 12.8521 89.4592 12.7798 89.5412 12.6877C89.7005 12.5316 89.7917 12.3189 89.7949 12.0958C89.8037 11.8721 89.7264 11.6535 89.5788 11.4852C89.4998 11.3976 89.4024 11.3285 89.2936 11.2831C89.1847 11.2376 89.0672 11.2168 88.9493 11.2221H87.5965L87.5683 12.9602ZM87.5683 15.4873H89.0339C89.1611 15.4916 89.2877 15.4677 89.4047 15.4174C89.5216 15.367 89.626 15.2915 89.7103 15.1961C89.8725 15.0228 89.9632 14.7946 89.964 14.5573C89.9583 14.3219 89.8644 14.0973 89.7009 13.9278C89.6103 13.8327 89.5008 13.7577 89.3795 13.7075C89.2581 13.6573 89.1276 13.6332 88.9963 13.6366H87.5683V15.4873Z" stroke="white"/>
<defs>
<linearGradient id="paint0_linear_532_2044" x1="20.2185" y1="32.0327" x2="4.67712" y2="16.1148" gradientUnits="userSpaceOnUse">
<stop stop-color="#00A0FF"/>
<stop offset="0.0066" stop-color="#00A1FF"/>
<stop offset="0.2601" stop-color="#00BEFF"/>
<stop offset="0.5122" stop-color="#00D2FF"/>
<stop offset="0.7604" stop-color="#00DFFF"/>
<stop offset="1" stop-color="#00E3FF"/>
</linearGradient>
<linearGradient id="paint1_linear_532_2044" x1="31.6368" y1="21.5725" x2="8.67975" y2="21.5725" gradientUnits="userSpaceOnUse">
<stop stop-color="#FFE000"/>
<stop offset="0.4087" stop-color="#FFBD00"/>
<stop offset="0.7754" stop-color="#FFA500"/>
<stop offset="1" stop-color="#FF9C00"/>
</linearGradient>
<linearGradient id="paint2_linear_532_2044" x1="23.0906" y1="19.4466" x2="2.01528" y2="-2.13945" gradientUnits="userSpaceOnUse">
<stop stop-color="#FF3A44"/>
<stop offset="1" stop-color="#C31162"/>
</linearGradient>
<linearGradient id="paint3_linear_532_2044" x1="6.45911" y1="39.9373" x2="15.8702" y2="30.2983" gradientUnits="userSpaceOnUse">
<stop stop-color="#32A071"/>
<stop offset="0.0685" stop-color="#2DA771"/>
<stop offset="0.4762" stop-color="#15CF74"/>
<stop offset="0.8009" stop-color="#06E775"/>
<stop offset="1" stop-color="#00F076"/>
</linearGradient>
</defs>
</svg>
