<svg width="256" height="180" viewBox="0 0 256 180" fill="none" xmlns="http://www.w3.org/2000/svg">
<path d="M141.034 128.081C141.034 122.687 141.582 117.023 142.678 111.089C143.774 104.616 145.691 98.1424 148.431 91.6692L196.122 2.90275C196.82 1.6053 198.173 0.795898 199.646 0.795898H252.283C253.79 0.795898 254.756 2.39963 254.051 3.73163L212.288 82.6215C211.128 84.8127 212.227 87.5114 214.515 88.4659C222.427 91.7663 229.163 96.6101 234.724 102.997C241.299 110.549 244.586 119.99 244.586 131.318C244.586 144.804 239.655 156.132 229.793 165.302C220.479 174.472 208.699 179.058 194.454 179.058C179.661 179.058 167.059 174.203 156.649 164.493C146.239 154.783 141.034 142.646 141.034 128.081ZM0.945312 128.081C0.945312 122.687 1.4932 117.023 2.58899 111.089C3.68477 104.616 5.6024 98.1424 8.34186 91.6692L56.0334 2.90276C56.7305 1.60531 58.0842 0.795898 59.557 0.795898H112.194C113.701 0.795898 114.667 2.39963 113.962 3.73163L72.1992 82.6215C71.0393 84.8127 72.1376 87.5114 74.4258 88.4659C82.3379 91.7663 89.0743 96.6101 94.6349 102.997C101.21 110.549 104.497 119.99 104.497 131.318C104.497 144.804 99.5659 156.132 89.7038 165.302C80.3897 174.472 68.61 179.058 54.3648 179.058C39.5717 179.058 26.9702 174.203 16.5602 164.493C6.15028 154.783 0.945312 142.646 0.945312 128.081Z" fill="#ECF0F3"/>
</svg>
