<svg width="200" height="200" viewBox="0 0 200 200" fill="none" xmlns="http://www.w3.org/2000/svg">
<g clip-path="url(#clip0_379_3152)">
<path d="M100 200C143.819 200 168.179 200 184.09 184.09C200 168.179 200 143.819 200 100C200 56.1806 200 31.8207 184.09 15.9103C168.179 -2.6491e-06 143.819 0 100 0C56.1806 0 31.8207 -2.6491e-06 15.9103 15.9103C-2.6491e-06 31.8207 0 56.1806 0 100C0 143.819 -2.6491e-06 168.179 15.9103 184.09C31.8207 200 56.1806 200 100 200Z" fill="url(#paint0_radial_379_3152)"/>
<path d="M79.1291 137.475L79.7095 139.657L79.433 139.799C78.7843 140.112 78.1527 140.323 77.1798 140.323C75.0529 140.323 73.7351 138.999 73.7351 136.869L73.7317 130.457H71.5467V128.254H73.7317V125.093L76.3536 124.383V128.254H79.1223V130.457H76.3536L76.357 136.531C76.357 137.306 76.8691 137.841 77.6611 137.889C78.1015 137.917 78.5385 137.786 78.9243 137.586L79.1291 137.475ZM143.666 128.251V140.192H146.288V128.251H143.666ZM160.371 134.221C160.371 137.699 157.783 140.323 154.349 140.323C150.901 140.323 148.303 137.699 148.303 134.221C148.303 130.743 150.901 128.12 154.349 128.12C157.783 128.12 160.371 130.743 160.371 134.221ZM157.759 134.221C157.759 132.122 156.325 130.598 154.349 130.598C152.358 130.598 150.914 132.122 150.914 134.221C150.914 136.321 152.358 137.844 154.349 137.844C156.325 137.844 157.759 136.321 157.759 134.221ZM126.071 133.908C126.071 133.908 126.31 137.627 122.281 137.627C118.253 137.627 118.495 133.887 118.495 133.887V124.304H115.727V133.797C115.727 137.768 118.301 140.323 122.281 140.323C126.262 140.323 128.836 137.768 128.836 133.818V124.304H126.068V133.908H126.071ZM144.977 122.639C143.878 122.639 142.987 123.538 142.987 124.648C142.987 125.155 143.175 125.62 143.482 125.972H146.473C146.78 125.617 146.968 125.155 146.968 124.648C146.968 123.538 146.077 122.639 144.977 122.639ZM99.3192 128.144C98.5306 128.247 97.7044 128.516 96.967 129.113V128.251H94.3451V140.192H96.967V132.932C96.967 132.687 97.008 132.446 97.1002 132.218C97.3255 131.674 97.7591 131.102 98.3941 130.826C98.8208 130.64 99.2271 130.578 99.5753 130.578C99.9542 130.578 100.511 130.64 100.9 130.843V128.292C100.896 128.292 100.108 128.04 99.3192 128.144ZM46.1913 124.307L43.1938 135.607L39.5955 124.307H36.7756L33.1773 135.607L30.1764 124.304H27.418L31.6376 140.192H34.3961L38.189 128.409L41.9785 140.192H44.737L48.9532 124.307H46.1913ZM54.6681 140.323C51.2201 140.312 48.6391 137.706 48.6323 134.225C48.6323 133.456 48.762 132.684 49.0283 131.963C49.4346 130.874 50.1549 129.912 51.0937 129.233C52.1179 128.495 53.3743 128.12 54.6272 128.12C56.2864 128.12 57.628 128.702 58.5942 129.747C59.2565 130.467 59.7037 131.381 59.9632 132.322C60.1953 133.166 60.2192 134.014 60.2192 134.887H51.2201L51.2713 135.145C51.6024 136.748 52.9612 137.824 54.6681 137.827C56.143 137.824 57.1091 137.124 57.6178 136.607L59.4135 138.296C58.3245 139.554 56.5492 140.319 54.6681 140.323ZM57.5256 132.97C57.4095 132.201 57.0443 131.491 56.4366 131.036C55.7777 130.543 55.1359 130.45 54.4394 130.45C53.4733 130.45 52.5959 130.912 51.9882 131.626C51.5034 132.191 51.2849 132.966 51.2849 132.966H57.5256V132.97ZM86.7798 140.323C83.3317 140.312 80.7507 137.706 80.7439 134.225C80.7439 133.456 80.8736 132.684 81.1399 131.963C81.5462 130.874 82.2665 129.912 83.2054 129.233C84.2296 128.495 85.4859 128.12 86.7388 128.12C88.398 128.12 89.7397 128.702 90.7058 129.747C91.3681 130.467 91.8154 131.381 92.0748 132.322C92.307 133.166 92.3309 134.014 92.3309 134.887H83.3317L83.3829 135.145C83.7141 136.748 85.0728 137.824 86.7798 137.827C88.2546 137.824 89.2208 137.124 89.7294 136.607L91.5252 138.296C90.4327 139.554 88.6609 140.319 86.7798 140.323ZM89.6339 132.97C89.5178 132.201 89.1525 131.491 88.5448 131.036C87.8859 130.543 87.2441 130.45 86.5476 130.45C85.5815 130.45 84.7041 130.912 84.0964 131.626C83.6116 132.191 83.3931 132.966 83.3931 132.966H89.6339V132.97ZM66.6682 132.884C65.5279 132.611 64.7222 132.318 64.7086 131.639C64.6915 130.729 65.4835 130.453 66.856 130.453C67.4227 130.453 69.2218 130.45 69.2218 130.45V128.247L66.8799 128.251C64.8212 128.251 62.2335 128.699 62.2335 131.801C62.2574 133.194 63.1962 134.273 64.9441 134.828C65.347 134.955 65.7567 135.052 66.1527 135.149C67.368 135.442 68.4161 135.738 68.4298 136.652C68.4434 137.479 67.351 137.975 66.436 137.992C64.8247 137.992 63.7595 137.055 63.4249 136.714L61.7145 138.323C61.7145 138.323 63.2099 140.316 66.5385 140.316C68.72 140.316 70.9493 138.889 70.9117 136.558C70.8708 134.252 68.7439 133.384 66.6682 132.884ZM136.743 128.12C135.814 128.12 134.729 128.278 133.78 128.978V128.251H131.158V140.192H133.78V132.98C133.78 131.915 134.626 130.64 136.289 130.64C137.747 130.64 138.73 131.639 138.73 133.128V140.192H141.352V132.956C141.352 129.998 139.474 128.12 136.743 128.12ZM108.803 128.12C107.875 128.12 106.789 128.278 105.84 128.978V128.251H103.218V140.192H105.84V132.98C105.84 131.915 106.687 130.64 108.349 130.64C109.807 130.64 110.79 131.639 110.79 133.128V140.192H113.412V132.956C113.412 129.998 111.534 128.12 108.803 128.12ZM167.97 128.12C167.042 128.12 165.956 128.278 165.007 128.978V128.251H162.385V140.192H165.007V132.98C165.007 131.915 165.854 130.64 167.516 130.64C168.974 130.64 169.957 131.639 169.957 133.128V140.192H172.579V132.956C172.579 129.998 170.705 128.12 167.97 128.12Z" fill="#FFDD00"/>
<path d="M119.078 59.6772L107.501 102.631H99.1003L90.3302 74.1536L81.5601 102.631H73.2146L61.5273 59.6772H70.6298L77.7843 86.8589L86.1482 59.6772H94.5675L103.079 87.064L110.077 59.6772H119.078ZM145.822 59.6772V86.1318V86.1971C145.822 86.2344 146.006 89.8325 143.708 92.3027C142.212 93.906 139.969 94.717 137.033 94.717C134.098 94.717 131.854 93.906 130.359 92.3027C128.06 89.8325 128.245 86.2344 128.245 86.1971V59.6772H124.469L119.078 79.6813V85.8988C119.078 91.1934 120.776 95.6771 123.989 98.8744C127.201 102.062 131.707 103.75 137.033 103.75C142.351 103.75 146.865 102.062 150.078 98.8744C153.29 95.6864 154.989 91.1934 154.989 85.8988V59.6772H145.822Z" fill="#FFDD00"/>
<path d="M56.7303 102.631L45.043 59.6772H48.0248L59.7214 102.631H56.7303ZM67.9653 102.631L56.278 59.6772H53.2961L64.9742 102.631H67.9653Z" fill="white"/>
<g style="mix-blend-mode:overlay">
<path d="M100 200C143.819 200 168.179 200 184.09 184.09C200 168.179 200 143.819 200 100C200 56.1806 200 31.8207 184.09 15.9103C168.179 -2.6491e-06 143.819 0 100 0C56.1806 0 31.8207 -2.6491e-06 15.9103 15.9103C-2.6491e-06 31.8207 0 56.1806 0 100C0 143.819 -2.6491e-06 168.179 15.9103 184.09C31.8207 200 56.1806 200 100 200Z" fill="url(#paint1_linear_379_3152)"/>
</g>
<path d="M100 200C143.819 200 168.179 200 184.09 184.09C200 168.179 200 143.819 200 100C200 56.1806 200 31.8207 184.09 15.9103C168.179 -3.07637e-06 143.819 0 100 0C56.1806 0 31.8207 -3.07637e-06 15.9103 15.9103C-3.07637e-06 31.8207 0 56.1806 0 100C0 143.819 -3.07637e-06 168.179 15.9103 184.09C31.8207 200 56.1806 200 100 200Z" fill="url(#paint2_linear_379_3152)"/>
<g style="mix-blend-mode:soft-light" filter="url(#filter0_f_379_3152)">
<path d="M100 1.5C121.952 1.5 138.87 1.50342 152.293 3.47266C165.665 5.43448 175.383 9.32443 183.029 16.9707C190.676 24.617 194.566 34.3347 196.527 47.707C198.497 61.13 198.5 78.0476 198.5 100C198.5 121.952 198.497 138.87 196.527 152.293C194.566 165.665 190.676 175.383 183.029 183.029C175.383 190.676 165.665 194.566 152.293 196.527C138.87 198.497 121.952 198.5 100 198.5C78.0476 198.5 61.13 198.497 47.707 196.527C34.3347 194.566 24.617 190.676 16.9707 183.029C9.32443 175.383 5.43448 165.665 3.47266 152.293C1.50342 138.87 1.5 121.952 1.5 100C1.5 78.0476 1.50342 61.13 3.47266 47.707C5.43448 34.3347 9.32443 24.617 16.9707 16.9707C24.617 9.32443 34.3347 5.43448 47.707 3.47266C61.13 1.50342 78.0476 1.5 100 1.5Z" stroke="url(#paint3_linear_379_3152)" stroke-width="3"/>
</g>
<g style="mix-blend-mode:soft-light" filter="url(#filter1_f_379_3152)">
<path d="M100 2C121.967 2 138.842 2.00504 152.221 3.96777C165.532 5.92062 175.133 9.78097 182.676 17.3242C190.219 24.8675 194.079 34.4684 196.032 47.7793C197.995 61.1578 198 78.0333 198 100C198 121.967 197.995 138.842 196.032 152.221C194.079 165.532 190.219 175.133 182.676 182.676C175.133 190.219 165.532 194.079 152.221 196.032C138.842 197.995 121.967 198 100 198C78.0333 198 61.1578 197.995 47.7793 196.032C34.4684 194.079 24.8675 190.219 17.3242 182.676C9.78097 175.133 5.92062 165.532 3.96777 152.221C2.00504 138.842 2 121.967 2 100C2 78.0333 2.00504 61.1578 3.96777 47.7793C5.92062 34.4684 9.78096 24.8675 17.3242 17.3242C24.8675 9.78096 34.4684 5.92062 47.7793 3.96777C61.1578 2.00504 78.0333 2 100 2Z" stroke="url(#paint4_linear_379_3152)" stroke-width="4"/>
</g>
</g>
<defs>
<filter id="filter0_f_379_3152" x="-2" y="-2" width="204" height="204" filterUnits="userSpaceOnUse" color-interpolation-filters="sRGB">
<feFlood flood-opacity="0" result="BackgroundImageFix"/>
<feBlend mode="normal" in="SourceGraphic" in2="BackgroundImageFix" result="shape"/>
<feGaussianBlur stdDeviation="1" result="effect1_foregroundBlur_379_3152"/>
</filter>
<filter id="filter1_f_379_3152" x="-6" y="-6" width="212" height="212" filterUnits="userSpaceOnUse" color-interpolation-filters="sRGB">
<feFlood flood-opacity="0" result="BackgroundImageFix"/>
<feBlend mode="normal" in="SourceGraphic" in2="BackgroundImageFix" result="shape"/>
<feGaussianBlur stdDeviation="3" result="effect1_foregroundBlur_379_3152"/>
</filter>
<radialGradient id="paint0_radial_379_3152" cx="0" cy="0" r="1" gradientUnits="userSpaceOnUse" gradientTransform="translate(100 100) rotate(90) scale(100)">
<stop stop-color="#202020"/>
<stop offset="1"/>
</radialGradient>
<linearGradient id="paint1_linear_379_3152" x1="-2.34568" y1="4.00344e-07" x2="52.4061" y2="234.466" gradientUnits="userSpaceOnUse">
<stop stop-opacity="0"/>
<stop offset="0.605667" stop-opacity="0.0781197"/>
<stop offset="1" stop-opacity="0.26"/>
</linearGradient>
<linearGradient id="paint2_linear_379_3152" x1="-2.34568" y1="4.00344e-07" x2="52.4061" y2="234.466" gradientUnits="userSpaceOnUse">
<stop stop-color="white" stop-opacity="0.26"/>
<stop offset="0.640625" stop-color="white" stop-opacity="0.0781197"/>
<stop offset="1" stop-color="white" stop-opacity="0"/>
</linearGradient>
<linearGradient id="paint3_linear_379_3152" x1="100" y1="200" x2="100" y2="168.75" gradientUnits="userSpaceOnUse">
<stop/>
<stop offset="1" stop-opacity="0"/>
</linearGradient>
<linearGradient id="paint4_linear_379_3152" x1="100" y1="0" x2="100" y2="100" gradientUnits="userSpaceOnUse">
<stop stop-color="white"/>
<stop offset="1" stop-color="white" stop-opacity="0"/>
</linearGradient>
<clipPath id="clip0_379_3152">
<rect width="200" height="200" fill="white"/>
</clipPath>
</defs>
</svg>
