<svg width="200" height="200" viewBox="0 0 200 200" fill="none" xmlns="http://www.w3.org/2000/svg">
<g clip-path="url(#clip0_381_3103)">
<path d="M100 200C143.819 200 168.179 200 184.09 184.09C200 168.179 200 143.819 200 100C200 56.1806 200 31.8207 184.09 15.9103C168.179 -2.6491e-06 143.819 0 100 0C56.1806 0 31.8207 -2.6491e-06 15.9103 15.9103C-2.6491e-06 31.8207 0 56.1806 0 100C0 143.819 -2.6491e-06 168.179 15.9103 184.09C31.8207 200 56.1806 200 100 200Z" fill="#FFD02F"/>
<g clip-path="url(#clip1_381_3103)">
<path fill-rule="evenodd" clip-rule="evenodd" d="M36.4933 120.409C36.8122 121.008 43.3006 124.001 44.4621 124.501C45.0524 124.756 45.6 124.989 46.1632 125.213L52.4261 127.436C52.7826 127.551 53.0311 127.632 53.3762 127.734L59.1405 129.292C60.4575 129.609 61.8262 129.969 63.1463 130.195L67.2915 130.96C68.3668 131.176 72.5391 131.819 73.7083 131.867L78.0967 132.306C79.348 132.47 83.691 132.696 85.0314 132.696C85.9235 132.696 86.5358 132.783 87.3621 132.78C88.9991 132.773 90.6392 132.775 92.2762 132.781L94.6053 132.696C96.1593 132.697 97.7028 132.526 99.2693 132.449C102.25 132.301 105.163 131.928 108.116 131.556C108.942 131.452 109.515 131.375 110.304 131.248L113.373 130.738C113.813 130.666 114.082 130.608 114.431 130.548C115.855 130.301 117.165 129.994 118.507 129.714C119.832 129.438 121.092 129.106 122.384 128.765L128.043 127.102C131.304 126.017 134.548 124.808 137.636 123.302L140.119 122.042C141.182 121.513 144.187 119.919 144.593 119.197C145.022 118.433 144.561 117.803 144.001 117.561C143.268 117.246 139.38 117.284 138.431 117.702C137.595 118.07 136.896 118.643 136.103 119.116C134.014 120.364 131.939 121.463 129.658 122.486C128.556 122.979 127.442 123.463 126.268 123.92C122.59 125.351 119.063 126.438 115.125 127.42C111.226 128.392 105.91 129.444 101.753 129.86C100.079 130.027 95.2542 130.549 93.8573 130.537L91.5303 130.624C90.3365 130.723 82.802 130.805 81.8911 130.68L79.5401 130.534C74.1703 130.377 67.3593 129.444 62.1289 128.385C56.7832 127.304 50.3089 125.585 45.291 123.342C43.6164 122.593 41.8787 121.928 40.2751 121.038C39.1826 120.431 38.184 119.922 37.1239 119.282C34.861 117.917 32.8122 116.395 30.8077 114.705L29.5137 113.505C28.2662 112.377 26.4423 110.252 25.6447 108.812C23.9691 105.787 22.8588 103.641 22.8395 99.4046C22.8238 96.0151 23.991 92.8858 25.77 90.123L27.2791 88.0577C28.192 86.9324 29.2501 85.9257 30.2701 84.8972C31.9232 83.23 35.3856 80.8748 37.2784 79.7651C38.8271 78.8573 40.4176 77.9683 42.0625 77.2302L47.2438 75.0082C47.8404 74.811 48.4209 74.5923 49.005 74.3571C49.6079 74.1145 50.1852 73.9469 50.8027 73.7418C51.9997 73.3442 53.3026 72.9403 54.56 72.59C57.7306 71.7067 61.1215 70.9348 64.4325 70.3138L68.5803 69.6351C69.38 69.5196 70.0502 69.4847 70.7946 69.3525C72.253 69.0938 73.7757 69.1005 75.243 68.8897C75.9393 68.7898 76.7959 68.7445 77.4599 68.693L80.9526 68.5228C81.4829 68.527 81.7032 68.4614 82.1171 68.439C83.8402 68.3463 87.5777 68.4395 89.4438 68.4395C91.1095 68.4395 92.51 68.6014 94.1089 68.603L105.109 69.7543C105.861 69.8584 106.564 70.0036 107.264 70.0957C110.748 70.5548 115.74 71.8238 119.194 72.8107C119.855 72.9991 120.38 73.2016 121.032 73.3858C123.524 74.0911 125.838 75.0785 128.217 76.018C131.295 77.2339 134.216 78.8844 137.03 80.5953C139.2 81.9142 138.748 81.7227 142.06 81.7227C143.047 81.7227 144.606 81.8736 144.729 80.7244C144.778 80.2648 144.652 79.9894 144.454 79.7515C143.76 78.9182 139.727 76.8565 138.299 76.1757L129.726 72.6035C127.94 71.9357 125.994 71.3944 124.15 70.8583C122.232 70.3003 120.181 69.8256 118.232 69.3707C115.182 68.6586 112.115 68.2313 109.008 67.6936C108.67 67.6353 108.2 67.6041 107.9 67.5531C107.197 67.4339 106.398 67.323 105.68 67.2762C105.358 67.2549 104.996 67.196 104.644 67.1471C103.461 66.9832 102.397 66.9983 101.217 66.8286C99.7501 66.6172 93.3661 66.3627 91.9405 66.3658C90.3025 66.3695 88.6635 66.3606 87.0255 66.3632C86.5254 66.3638 86.422 66.4465 85.9491 66.4522C85.5352 66.4575 85.1123 66.4496 84.6968 66.4491L82.2946 66.5444C81.9287 66.5855 81.6875 66.6172 81.1984 66.6136C80.096 66.6053 76.7093 66.9243 75.587 67.0784C74.7763 67.1898 74.1301 67.1986 73.3121 67.3007L67.0122 68.2412C66.2318 68.3713 65.6044 68.4869 64.8814 68.6071C62.2861 69.0376 59.5111 69.7564 56.9388 70.4002C55.035 70.877 53.1407 71.4673 51.2908 72.0742C44.3535 74.3508 37.6427 77.4868 31.7943 81.8554C31.2796 82.2401 30.8892 82.6023 30.4147 82.9703C29.5064 83.6745 28.6702 84.5032 27.8548 85.3157L26.6882 86.5597C26.5457 86.7132 26.5462 86.7403 26.4303 86.8834C26.2022 87.165 25.8551 87.7407 25.5027 87.8682C26.424 86.4962 27.3855 85.4489 28.4165 84.2153L28.6869 83.9041C28.8388 83.7443 28.9463 83.6459 29.1034 83.4893C29.3874 83.2061 29.6113 82.9844 29.8942 82.7007L30.7284 81.9553C30.886 81.7992 30.9816 81.6826 31.1517 81.5473L32.4698 80.4542C34.2498 79.0171 36.1107 77.6675 38.0786 76.5005L44.318 73.0923L49.872 70.661C50.2745 70.5002 50.6012 70.3799 51.0136 70.2222C55.4427 68.5301 59.9872 67.2314 64.5938 66.0811L69.8659 64.9459C70.7544 64.7929 71.6439 64.5873 72.6122 64.4462L73.9563 64.2094C76.668 63.7498 81.3128 63.0909 84.0292 62.9633C84.8816 62.9233 85.9073 62.7473 86.9435 62.7151L93.0211 62.383C94.1559 62.3871 95.0193 62.3002 96.1849 62.3002H101.014C101.667 62.2987 102.03 62.3856 102.593 62.3861C104.748 62.3892 106.689 62.5704 108.759 62.6297L121.696 64.0923C122.238 64.1834 122.619 64.2271 123.147 64.3047L125.897 64.8007C127.621 65.0989 129.453 65.5377 131.188 65.9167L134.993 66.8551C145.901 69.8641 155.479 73.7018 164.443 80.8233C164.713 81.0377 165.04 81.3349 165.341 81.5061C165.809 81.7716 166.107 81.7274 166.786 81.7258C168.081 81.7227 175.405 81.846 176.316 81.6816C177.433 81.4796 178.963 80.792 179.028 79.5704C179.104 78.164 178.053 77.377 177.011 76.6764C175.489 75.6531 173.83 74.3748 172.197 73.5066C171.991 73.3973 171.939 73.3614 171.732 73.2234C171.518 73.0819 171.405 73.0371 171.202 72.921C170.88 72.7357 170.533 72.5249 170.199 72.3443C169.992 72.2324 169.893 72.158 169.672 72.0398L167.049 70.6704C165.226 69.7616 163.426 68.8773 161.529 68.1225L154.534 65.4669C150.014 63.7915 141.467 61.686 136.695 60.8402L132.581 60.1277C130.241 59.8029 126.231 59.095 124.073 58.981C123.553 58.9534 123.069 58.8899 122.637 58.8358C120.938 58.6229 119.098 58.5922 117.403 58.41C117.129 58.3803 116.884 58.4121 116.606 58.3746C115.742 58.2591 109.467 58.0649 108.924 58.0654L99.3466 58.1456C97.7806 58.1477 95.629 58.398 94.0217 58.4808C84.3351 58.9779 72.4665 60.9834 63.1239 63.7009C60.6642 64.4161 58.1691 65.0963 55.8071 66.0353L48.8969 68.7747C48.1604 69.1313 47.428 69.4233 46.6769 69.7985L44.568 70.8505C41.8938 72.2433 40.9329 72.8388 38.4106 74.3404C36.4374 75.5152 34.5833 76.9445 32.8096 78.3852C31.3485 79.572 29.9303 80.8347 28.6864 82.2432C28.4071 82.5591 28.1346 82.747 27.8684 83.0885L26.4439 84.8228C25.58 85.8804 24.8455 87.0193 24.1659 88.1961L23.3234 89.7634C23.1517 90.1058 22.9648 90.4931 22.8019 90.9038C22.6349 91.3254 22.4903 91.6351 22.3483 92.0286C21.9077 93.2507 21.5267 94.4479 21.3038 95.8022C21.0005 97.6437 20.8544 99.7314 21.0746 101.664C21.2391 103.107 21.428 104.3 21.8388 105.634C22.5785 108.036 23.6376 110.04 24.9233 112.189C25.9866 113.966 28.3993 116.823 30.018 118.316L31.6842 119.809C32.7944 120.864 34.0702 121.77 35.2906 122.688L37.1949 124.027C37.8614 124.47 38.4523 124.822 39.1215 125.26C39.465 125.485 39.7521 125.641 40.1076 125.854C41.7962 126.866 43.5736 127.817 45.3301 128.699C47.1373 129.606 48.9262 130.436 50.8231 131.191C51.2375 131.356 51.5925 131.488 52.0044 131.673C52.3818 131.842 52.7769 131.97 53.1423 132.116L57.8455 133.818C60.7112 134.772 63.5462 135.668 66.5247 136.372L75.8047 138.408C77.1436 138.718 78.5587 138.881 79.9138 139.125C80.1466 139.168 80.3439 139.167 80.583 139.206C80.8633 139.25 81.0204 139.303 81.2887 139.332L85.5539 139.894C87.0275 140.091 88.3847 140.264 89.8562 140.336C90.3281 140.359 90.871 140.491 91.3549 140.502L103.678 141.082C105.042 141.082 109.013 141.203 110.066 141.059C110.949 140.938 112.195 141.09 113.121 140.95C114.083 140.805 115.243 140.911 116.246 140.828L120.741 140.496C123.86 140.254 127.708 139.776 130.784 139.303L141.659 137.28C145.859 136.299 150.148 135.143 154.225 133.788L157.721 132.542C160.796 131.446 163.791 130.102 166.716 128.643C168.835 127.587 170.934 126.484 172.912 125.191C173.251 124.969 173.543 124.791 173.889 124.588C174.893 123.997 177.866 122.02 178.526 121.16C178.777 120.834 179.013 120.572 179.03 119.999C179.089 117.989 176.958 117.42 175.194 117.422C174.168 117.423 166.294 117.299 165.687 117.489C165.131 117.663 161.89 120.348 161.041 120.909C157.822 123.034 155.325 124.474 151.856 126.195C145.205 129.492 137.458 131.741 130.236 133.444C129.385 133.644 128.42 133.866 127.561 134.014C125.283 134.406 122.995 134.907 120.685 135.211C117.735 135.599 113.538 136.278 110.586 136.348C110.252 136.356 109.508 136.426 109.138 136.481L101.433 136.851L88.8707 136.587C88.4745 136.543 87.8403 136.547 87.395 136.481C87.0046 136.423 86.2273 136.351 85.8635 136.348C85.3133 136.344 84.926 136.306 84.3988 136.231C82.933 136.022 81.4506 135.964 80.0177 135.784L71.6131 134.535C65.5637 133.531 59.4725 131.922 53.6925 129.907C49.0582 128.291 44.6735 126.352 40.3748 124.01L36.5987 121.712C36.3941 121.609 36.5695 121.602 36.3242 121.656L36.1582 121.49L36.1571 121.408C36.3096 121.608 36.2119 121.564 36.1869 121.615C36.036 121.385 35.8351 121.418 35.4937 121.168L32.4426 118.892C32.1738 118.717 32.2986 118.731 32.0485 118.535L27.3234 113.938L25.7752 111.913C25.1091 111.054 25.1681 110.838 24.7082 110.2L24.9374 110.285C25.0512 110.323 24.8601 110.16 25.0731 110.37C25.3268 110.622 26.3833 112.102 27.1851 112.837L28.5611 114.287C28.8184 114.545 29.0779 114.701 29.3049 114.955C29.4124 115.075 29.4834 115.191 29.6171 115.306C29.7648 115.433 29.8488 115.467 29.9976 115.593C30.161 115.732 30.2027 115.789 30.3901 115.942C30.4037 115.953 30.4241 115.967 30.4371 115.979C30.9361 116.4 31.3715 116.829 31.9467 117.211L33.1431 118.088C34.8005 119.289 34.6428 119.13 36.1044 120.025L36.4886 120.41L36.4933 120.409Z" fill="#2B4277"/>
<path fill-rule="evenodd" clip-rule="evenodd" d="M53.977 99.2408C52.5849 99.2408 51.044 99.3964 50.2834 98.0259C50.1957 97.8682 49.9807 97.3519 49.9807 97.1656V90.524C49.9807 89.6261 50.8289 88.684 51.7147 88.4347C52.2649 88.2796 52.7112 88.2827 53.311 88.2827C54.3852 88.2827 54.9281 88.4638 55.5362 88.9692C56.0509 89.3971 56.3913 90.1065 56.3913 91.0221V96.5842C56.3913 97.469 56.1157 97.9229 55.7289 98.4142C55.5477 98.6448 55.305 98.79 55.0273 98.9597C54.7318 99.1398 54.4186 99.2408 53.977 99.2408ZM46.7339 92.5165C42.7061 92.5165 43.1373 92.784 43.1525 91.6878C43.1759 89.9363 43.4369 87.8059 42.5104 86.766C41.7467 85.9092 40.8734 86.0409 39.8242 86.0409V101.731H43.1545V95.4214C43.1545 95.2298 43.2125 95.172 43.4046 95.172H46.9844C46.9844 97.252 46.8915 98.7343 48.6694 100.382C49.1282 100.807 49.693 101.131 50.3372 101.376C51.6583 101.879 54.5705 101.856 55.9058 101.411C57.0636 101.025 58.1337 100.092 58.6969 99.0466C58.9469 98.5829 59.3066 97.7423 59.3066 97.0812V90.5229C59.3066 89.4814 58.5622 88.074 57.832 87.3442C57.6336 87.1459 57.4154 87.0137 57.1779 86.8342C55.5723 85.6167 53.8664 85.8743 51.8964 85.8743C50.2484 85.8743 48.7425 86.9356 48.0164 87.8996C47.2282 88.9469 46.9797 89.9379 46.9839 91.2699C46.9849 91.6576 47.14 92.5154 46.7344 92.5154L46.7339 92.5165Z" fill="#2B4277"/>
<path fill-rule="evenodd" clip-rule="evenodd" d="M161.293 101.732C161.86 101.732 161.74 101.932 162.812 101.669C164.488 101.258 164.623 99.8799 164.623 98.1622C164.623 97.0791 164.46 91.7002 164.706 91.1891C164.971 91.3827 165.927 93.764 166.119 94.1799L168.453 99.3245H171.2L173.642 93.79C173.831 93.3856 173.976 93.0603 174.17 92.6559L174.916 90.9923C175.08 90.6228 174.945 90.6139 175.28 90.5249C175.28 93.0155 175.28 95.5061 175.28 97.9962C175.28 99.6659 175.311 101.347 177.228 101.699C177.613 101.77 178.693 101.942 178.693 101.483V86.2912C178.693 85.8779 177.5 86.0419 176.695 86.0419C175.918 86.0419 175.141 86.0419 174.364 86.0419C174.282 86.3922 173.996 86.8476 173.829 87.252L172.116 90.9398C171.917 91.3301 171.763 91.7065 171.561 92.1296L169.702 95.8382C169.678 95.5566 167.774 91.4837 167.454 90.857C167.256 90.4687 167.106 90.082 166.898 89.6677L165.455 86.5405C165.369 86.3422 165.292 86.0419 165.04 86.0419H161.293V101.732H161.293Z" fill="#2B4277"/>
<path fill-rule="evenodd" clip-rule="evenodd" d="M144.726 86.2903C144.68 86.2903 144.58 86.2918 144.549 86.2845C144.369 86.2439 144.367 86.2309 144.311 86.207L143.228 86.1872C143.144 86.4527 143.095 101.078 143.222 101.624C143.97 101.633 144.726 101.621 145.476 101.624C145.835 101.626 146.248 101.697 146.466 101.476L152.062 93.3691C152.255 93.0469 152.632 92.6836 152.803 92.2797L152.886 92.1855L152.969 92.1027C152.969 92.084 152.971 92.0366 152.976 92.047C152.982 92.059 152.996 92.0028 153.004 91.9918C153.013 91.9788 153.037 91.9554 153.052 91.9367L153.136 91.8539L153.219 91.6879L153.302 91.6046L153.386 91.4422L153.469 91.3558L153.552 91.2725C153.552 91.1299 153.527 91.1892 153.718 91.1892C154.044 91.0175 153.814 90.8363 154.218 90.6906C154.218 93.126 154.221 95.5609 154.218 97.9963C154.216 99.576 154.388 101.275 156.028 101.671C156.989 101.903 157.043 101.732 157.631 101.732V86.042H154.051L147.439 95.6369C147.251 95.8956 147.132 96.0554 146.959 96.3198C146.79 96.5748 146.715 96.8314 146.392 96.9173C146.392 95.6988 146.532 88.6664 146.277 87.8174C146.083 87.1689 145.85 86.7743 145.329 86.4355C145.065 86.2632 145.017 86.1935 144.726 86.2908V86.2903Z" fill="#2B4277"/>
<path fill-rule="evenodd" clip-rule="evenodd" d="M83.6179 101.157C83.9233 100.869 83.7808 100.983 83.9588 100.674L84.9354 99.315C85.0607 99.1438 85.1547 99.0292 85.2752 98.8221C85.7273 98.0445 86.3265 97.2866 86.8793 96.5199C87.1283 96.1748 87.2317 95.9016 87.4927 95.5622L88.5069 94.1589C88.6572 93.9367 88.6719 93.8534 88.7799 93.6874C89.1552 93.0456 89.8662 92.2008 90.312 91.5569C90.5302 91.242 90.7771 90.6273 91.0923 90.5217C91.3773 90.4259 91.168 90.4889 91.2489 90.5539C91.453 90.8345 91.3366 96.7645 91.3361 97.6629C91.3361 100.083 91.4144 101.85 94.4248 101.55L94.4263 86.202C94.0719 86.1307 91.677 86.1136 91.2954 86.1672C90.9598 86.2145 91.0595 86.1989 90.8423 86.5097L89.9445 87.8588C89.4669 88.6791 88.7789 89.3531 88.2845 90.1912L86.2759 93.1596C86.1412 93.3886 86.0128 93.5244 85.8594 93.743C85.578 94.1438 85.2831 94.5035 85.0205 94.9053C84.6807 95.4258 83.8147 96.9571 83.3266 97.1185C83.0949 96.7057 83.2175 91.2644 83.2175 90.0246L83.2014 87.7833C83.1366 87.3315 82.8417 86.9526 82.5598 86.6793C82.3046 86.4321 81.7226 86.0433 81.2867 86.2052L80.143 86.2119C80.096 86.5841 80.013 100.818 80.1472 101.455C80.1508 101.472 80.1665 101.531 80.1691 101.52C80.1717 101.509 80.1827 101.564 80.1931 101.62L83.4055 101.605L83.5349 101.322C83.5417 101.307 83.5563 101.278 83.5621 101.266C83.5678 101.254 83.5855 101.24 83.5897 101.21C83.5939 101.181 83.607 101.173 83.6179 101.155V101.157Z" fill="#2B4277"/>
<path fill-rule="evenodd" clip-rule="evenodd" d="M62.4688 101.566C62.4688 101.757 62.5267 101.814 62.7183 101.814H65.7985V95.4221C65.7985 95.2305 65.8565 95.1727 66.0486 95.1727H73.4583C73.8378 95.1727 73.7109 95.7619 73.7083 96.1685C73.7026 97.121 73.6436 99.2753 73.8096 99.9691C74.0883 101.137 74.8384 101.552 75.8715 101.733C76.5323 101.849 76.441 101.731 77.0386 101.731V86.0406H73.7083V91.9347C73.7083 92.221 73.6467 92.2564 73.6248 92.5156L66.3743 92.5229C65.8419 92.5286 65.7933 92.5666 65.7892 92.0268C65.773 89.8314 66.5262 86.04 63.3843 86.04H62.4688V101.564V101.566Z" fill="#2B4277"/>
<path fill-rule="evenodd" clip-rule="evenodd" d="M135.065 94.0108H131.235C131.044 94.0108 130.986 93.953 130.986 93.7615V88.7803C130.986 88.5893 131.044 88.5315 131.235 88.5315H134.815C137.785 88.5315 138.661 92.4092 136.177 93.7084C135.966 93.8182 135.346 94.0108 135.064 94.0108H135.065ZM136.564 96.1698C137.313 96.4202 138.926 95.0768 139.415 94.5302C141.531 92.1656 140.727 88.164 138.173 86.678C137.83 86.4781 136.923 85.9352 136.481 86.1242C136.397 86.1236 136.304 86.1299 136.221 86.1143C135.918 86.057 136.039 86.0638 135.981 86.0409L127.824 85.9878C127.681 86.7227 127.778 100.498 127.778 101.62H130.855C130.851 100.718 130.854 99.8128 130.854 98.9087L130.848 96.91C130.85 96.5555 130.809 96.5248 131.027 96.3634C131.137 96.2854 135.815 96.2547 136.564 96.1698Z" fill="#2B4277"/>
<path fill-rule="evenodd" clip-rule="evenodd" d="M102.182 101.484C104.237 101.563 106.79 101.698 108.828 101.552C108.709 101.27 108.622 101.277 108.425 101.062L107.226 99.4577C106.455 99.0517 102.425 99.9532 102.016 98.7436C101.895 98.5151 101.219 97.9972 101.109 97.0749L101.1 91.6039C101.1 90.4931 101.095 89.9971 101.586 89.3486C103.032 87.4363 106.478 88.6938 107.244 88.1826C107.257 88.1738 109.017 86.1574 109.092 85.8758C107.475 85.8758 102.891 85.7066 101.681 86.123C99.7065 86.8023 98.5894 88.1957 98.1625 90.3349C97.9845 91.2265 98.0612 96.8542 98.259 97.7572C98.4109 98.449 98.7346 99.1126 99.1725 99.6685C99.8234 100.495 101.388 101.748 102.182 101.483L102.182 101.484Z" fill="#2B4277"/>
<path fill-rule="evenodd" clip-rule="evenodd" d="M110.825 88.1359C111.915 88.1573 115.97 88.0131 116.222 88.2301C116.55 88.557 116.378 90.8233 116.378 91.4375C116.378 92.7887 116.3 101.02 116.418 101.625L119.445 101.624C119.688 100.583 119.23 88.6117 119.628 88.2442C119.949 87.9569 122.594 88.1734 123.245 88.1338C123.611 87.8184 123.888 87.4093 124.183 87.0606L124.933 86.1002C125.192 85.7853 124.864 86.0701 124.994 86.0414C124.132 85.8936 114.763 85.993 113.088 85.9935C112.676 85.9935 112.214 86.7285 111.943 86.9742C111.583 87.3 110.988 87.7247 110.824 88.1364L110.825 88.1359Z" fill="#2B4277"/>
<path fill-rule="evenodd" clip-rule="evenodd" d="M74.7092 111.444L75.059 110.809C75.2464 110.57 75.6744 110.123 75.9777 110.033C76.0069 110.024 76.3149 109.976 76.33 109.976C76.7429 109.982 76.4965 109.988 76.5837 110.077C76.8661 110.363 76.6725 112.704 76.7184 113.297L77.3484 113.295C77.4492 112.341 77.3161 111.09 77.3735 110.358C77.3991 110.03 77.481 109.936 77.8062 110.009L78.2891 110.033C78.3371 110.091 78.3674 110.269 78.3721 110.282L79.9386 112.622C80.1208 112.924 80.269 113.161 80.4538 113.437H81.5359C81.4664 113.14 81.1506 112.7 80.9799 112.414C80.7712 112.064 80.5718 111.769 80.375 111.439C79.3806 109.771 78.9985 110.139 78.9546 109.618C79.7684 109.401 79.949 107.947 80.4355 107.359C80.6866 107.055 81.0259 107.127 81.5354 107.127V106.297C80.3823 106.297 79.9386 106.312 79.426 107.348C79.154 107.897 78.7458 109.047 78.288 109.285C78.2724 109.332 78.2572 109.471 78.2045 109.534C76.9705 109.469 77.4492 109.725 77.3745 106.415H76.6944C76.6933 106.999 76.8562 109.093 76.5931 109.421C76.2977 109.679 75.6332 109.431 75.4395 109.218C75.4118 109.188 75.2093 108.865 75.1404 108.755C74.9321 108.423 74.9227 108.38 75.0407 108.207C74.7724 107.605 74.5516 106.956 74.0233 106.564C73.8855 106.461 73.8312 106.423 73.6428 106.363C73.3912 106.282 72.9209 106.297 72.543 106.297V107.127C73.399 107.127 73.5499 107.017 74.0406 108.124C74.2854 108.677 74.4864 109.469 75.1237 109.618V109.867C74.3799 110.065 73.5614 111.642 73.0905 112.406C72.9131 112.693 72.5722 113.084 72.543 113.437H73.6251L74.6644 111.73C74.7557 111.512 74.7609 111.683 74.7077 111.444H74.7092Z" fill="#2B4277"/>
<path fill-rule="evenodd" clip-rule="evenodd" d="M41.5744 109.784L41.6574 108.871C41.6579 108.4 41.636 107.461 41.7999 107.106C42.1157 106.912 42.7233 106.985 43.1561 106.985C44.0299 106.986 44.4443 106.859 44.4976 107.453L44.4924 111.278C44.4924 111.528 44.495 111.778 44.496 112.029C44.496 112.104 44.4992 112.293 44.4877 112.358C44.4297 112.685 44.4772 112.472 44.3775 112.579C44.0988 112.853 41.6078 112.745 41.0764 112.689C40.9318 112.689 40.9919 112.715 40.9919 112.524C41.2304 112.298 41.0524 112.516 41.1981 112.228C41.4664 111.698 41.7529 110.245 41.5749 109.784L41.5744 109.784ZM39.9087 112.606H39.4922V114.848C39.4922 115.179 39.7281 115.097 40.3248 115.097C40.3248 114.041 40.1703 113.437 40.5748 113.437H45.0707C45.0707 115.356 44.864 115.097 45.9033 115.097V112.606H45.3208V106.297H40.9914C40.9914 107.079 40.864 112.606 39.9093 112.606H39.9087Z" fill="#2B4277"/>
<path fill-rule="evenodd" clip-rule="evenodd" d="M149.053 112.607H147.222V110.116C148.769 110.116 150.635 109.809 150.635 111.361C150.635 112.269 149.951 112.607 149.053 112.607ZM147.034 109.306C146.965 108.808 147.003 108.295 146.997 107.791C146.988 107.084 146.95 106.989 147.72 106.984C148.622 106.98 149.666 106.881 150.185 107.412C150.795 108.036 150.415 109.082 149.74 109.312C149.164 109.508 147.557 109.466 147.033 109.305L147.034 109.306ZM146.223 113.437C148.357 113.437 151.634 113.923 151.634 111.362C151.634 110.183 150.802 109.897 150.386 109.619C150.528 109.425 151.668 108.819 151.161 107.518C150.869 106.769 150.217 106.298 149.22 106.298H146.223V113.437Z" fill="#2B4277"/>
<path fill-rule="evenodd" clip-rule="evenodd" d="M154.714 110.448C154.714 109.353 154.639 108.371 155.513 107.592C157.2 106.088 159.543 107.517 159.543 109.369V110.282C159.543 111.626 158.542 112.677 157.19 112.728C155.772 112.782 154.714 111.541 154.714 110.448ZM153.715 109.535C153.715 110.705 153.844 111.673 154.69 112.548C156.336 114.25 160.542 113.978 160.542 109.701C160.542 107.043 158.009 105.517 155.817 106.402C154.575 106.903 153.715 108.193 153.715 109.535Z" fill="#2B4277"/>
<path fill-rule="evenodd" clip-rule="evenodd" d="M164.541 107.127H166.789C166.981 107.127 167.039 107.185 167.039 107.377V112.358C167.039 112.549 166.981 112.607 166.789 112.607H163.958C163.534 112.607 163.84 112.376 164.042 111.612C164.349 110.449 164.541 108.33 164.541 107.128L164.541 107.127ZM163.542 109.119C163.542 109.469 163.507 109.396 163.625 109.701L163.608 110.122C163.602 110.154 163.596 110.174 163.59 110.203C163.584 110.233 163.573 110.261 163.567 110.284C163.561 110.307 163.552 110.339 163.541 110.365C163.526 110.912 163.212 112.102 162.934 112.494C162.697 112.83 162.609 112.62 162.314 112.773C162.315 113.395 162.189 114.444 162.376 114.962L162.831 114.88C162.944 114.524 162.755 113.76 162.968 113.455C163.189 113.171 164.929 113.295 165.373 113.295C168.673 113.295 167.745 113.081 167.933 114.962H168.37C168.597 114.46 168.45 113.473 168.449 112.856C168.34 112.354 167.791 113.328 167.803 111.778L167.804 106.416C167.121 106.416 164.194 106.328 163.791 106.464C163.791 107.122 163.871 108.706 163.541 109.12L163.542 109.119Z" fill="#2B4277"/>
<path fill-rule="evenodd" clip-rule="evenodd" d="M83.6152 101.157C83.9462 101.17 83.9817 100.933 84.3805 100.337L88.7318 94.0489C88.8331 93.8048 88.8383 94.0156 88.7767 93.6871C89.104 93.697 89.0904 93.5419 89.4422 93.0141L90.8052 91.0524C90.9492 90.8369 90.9242 90.7604 91.1904 90.6896C91.1904 92.1064 91.086 98.9385 91.3078 99.9534C91.6195 101.38 93.128 101.93 94.1459 101.779C94.5985 101.711 94.6089 101.731 94.6136 101.242C94.6622 96.1892 94.6042 91.0987 94.6042 86.0405H90.9409C90.872 86.2976 90.5765 86.6854 90.4063 86.9185C90.0342 87.4281 89.8677 87.4625 89.9418 87.8591C89.746 87.8518 89.8254 87.6722 89.4412 88.2807C88.4489 89.8536 86.9299 91.8695 85.8457 93.4956L83.8485 96.4021C83.6544 96.7003 83.6731 96.7534 83.3647 96.9158C83.3647 95.3215 83.5489 88.6841 83.1981 87.7841L83.2143 90.0254C83.2143 91.2652 83.0917 96.7066 83.3234 97.1193C83.8115 96.9574 84.6775 95.4261 85.0173 94.9061C85.2793 94.5043 85.5748 94.1446 85.8561 93.7439C86.0096 93.5253 86.138 93.3889 86.2727 93.1604L88.2813 90.192C88.7756 89.354 89.4636 88.6794 89.9413 87.8596L90.8391 86.5105C91.0568 86.2003 90.9565 86.2159 91.2922 86.168C91.6737 86.1144 94.0687 86.131 94.4231 86.2029L94.4215 101.55C91.4112 101.851 91.3324 100.084 91.3329 97.6637C91.3329 96.7648 91.4498 90.8353 91.2457 90.5548C91.1648 90.4897 91.3741 90.4267 91.0891 90.5225C90.7738 90.6281 90.5264 91.2429 90.3087 91.5578C89.863 92.2016 89.152 93.0464 88.7767 93.6882C88.6686 93.8537 88.654 93.937 88.5037 94.1597L87.4894 95.563C87.2284 95.9029 87.1251 96.1756 86.8761 96.5207C86.3233 97.2874 85.7241 98.0453 85.272 98.8229C85.1514 99.0301 85.0575 99.1446 84.9322 99.3158L83.9556 100.675C83.7776 100.984 83.9201 100.87 83.6147 101.158C83.6037 101.176 83.5907 101.184 83.5865 101.213C83.5823 101.242 83.5646 101.257 83.5588 101.269C83.5531 101.281 83.5385 101.31 83.5317 101.324L83.4022 101.608L80.1899 101.623C80.1794 101.566 80.1685 101.512 80.1659 101.523C80.1627 101.534 80.1476 101.475 80.144 101.458C80.0098 100.821 80.0928 86.587 80.1398 86.2148L81.2835 86.2081C81.2307 86.0826 81.4166 86.0545 80.7886 86.0285C79.6825 85.9832 79.9498 86.1331 79.9513 87.2043L79.9419 101.327C79.9466 101.977 80.1032 101.826 80.7823 101.817C81.6405 101.805 82.506 101.816 83.3647 101.816C83.7436 101.251 83.6799 101.512 83.6147 101.159L83.6152 101.157Z" fill="#2B4277"/>
<path fill-rule="evenodd" clip-rule="evenodd" d="M143.394 113.299L143.434 112.716C138.345 112.681 139.031 113.351 139.019 110.694C139.018 110.41 138.969 110.32 139.114 110.168C139.396 109.842 142.34 110.018 142.987 110.015L142.939 109.459C142.377 109.458 139.367 109.61 139.12 109.322L139.077 107.304C139.204 106.766 142.618 107.061 143.319 107.054L143.325 106.356H138.289L138.329 113.328L143.393 113.3L143.394 113.299Z" fill="#2B4277"/>
<path fill-rule="evenodd" clip-rule="evenodd" d="M107.874 112.666C107.32 112.773 103.909 112.81 103.597 112.605C103.416 112.324 103.42 110.403 103.597 110.119C104.044 109.826 106.669 110.12 107.481 109.972L107.445 109.443C106.336 109.317 104.601 109.587 103.6 109.362C103.514 109.033 103.451 107.398 103.627 107.163C103.889 106.881 106.852 107.21 107.728 107.01L107.731 106.404C106.875 106.201 103.952 106.388 102.832 106.347L102.834 113.296H107.843L107.874 112.667L107.874 112.666Z" fill="#2B4277"/>
<path fill-rule="evenodd" clip-rule="evenodd" d="M66.1512 112.619C66.0458 112.556 65.9712 112.781 65.9764 112.027C65.9779 111.805 65.98 111.584 65.98 111.362C65.98 110.965 65.9043 110.417 66.0923 110.114C66.3715 109.958 66.6769 110.013 67.0459 110.015L69.9012 110.014L69.8543 109.458L66.8794 109.458C66.4498 109.462 66.2515 109.543 66.0442 109.294C65.8537 109.044 65.9404 107.382 65.9592 107.304C66.0964 106.727 69.1757 106.992 70.169 106.987L70.1816 106.416C69.1741 106.416 66.0322 106.286 65.2675 106.463L65.2383 113.299L70.3684 113.327L70.4175 112.774L70.4076 112.661L66.1518 112.619L66.1512 112.619Z" fill="#2B4277"/>
<path fill-rule="evenodd" clip-rule="evenodd" d="M132.322 109.701C130.708 109.701 131.073 110.18 131.073 107.128H133.404C134.352 107.128 134.819 107.942 134.554 108.853C134.328 109.629 133.344 109.701 132.322 109.701ZM133.904 110.283L134.236 110.2C135.227 110.531 136.038 108.033 135.402 107.543C135.38 107.527 135.355 107.504 135.34 107.49L135.151 107.277C134.693 106.652 134.289 106.536 133.398 106.445C132.471 106.35 131.253 106.415 130.297 106.415L130.32 113.295H130.94C131.001 112.644 130.769 110.886 131.086 110.465C131.259 110.297 132.196 110.368 132.488 110.368C133.02 110.368 133.374 110.366 133.903 110.283H133.904Z" fill="#2B4277"/>
<path fill-rule="evenodd" clip-rule="evenodd" d="M84.7057 110.047C84.7057 109.893 84.6755 109.95 84.8639 109.95C85.2919 110.115 87.9322 110.115 88.3607 109.95L88.6651 110.038C88.7126 110.725 88.6886 111.42 88.6886 112.108C88.6886 112.34 88.6562 112.901 88.6828 113.092C88.7225 113.377 88.9365 113.271 89.3139 113.271L89.3165 106.408L88.6844 106.463C88.687 109.54 88.9965 109.373 87.6942 109.367C83.9384 109.35 84.712 110.053 84.6676 106.415H84L84.0271 113.296L84.6624 113.295L84.7052 110.048L84.7057 110.047Z" fill="#2B4277"/>
<path fill-rule="evenodd" clip-rule="evenodd" d="M122.24 113.264L127.279 113.297L127.31 112.715C126.595 112.711 123.356 112.908 123.026 112.577C122.8 112.342 122.916 110.367 122.954 110.071C123.727 109.912 125.902 110.011 126.85 110.014L126.827 109.453C126.083 109.463 123.436 109.566 123.001 109.368C122.879 109.06 122.814 107.402 123.012 107.149C123.358 106.795 126.411 106.979 127.119 106.991L127.142 106.41L122.238 106.419L122.24 113.264H122.24Z" fill="#2B4277"/>
<path fill-rule="evenodd" clip-rule="evenodd" d="M48.6086 113.272H53.6443L53.6824 112.72C53.0122 112.704 49.6182 112.842 49.3598 112.563C49.1964 112.38 49.27 111.647 49.27 111.362C49.27 111.139 49.2658 110.914 49.2669 110.692C49.2684 110.416 49.2314 110.314 49.3619 110.162C49.6552 109.839 52.5836 110.015 53.2272 110.014L53.2037 109.456C52.4693 109.473 49.7701 109.57 49.365 109.357C49.3185 109.286 49.2961 109.28 49.2569 109.124L49.2397 107.374C49.3196 107.053 49.2491 107.245 49.3984 107.062C49.8687 106.828 52.6749 107.051 53.4893 106.972L53.5091 106.431L48.5977 106.414L48.6091 113.272H48.6086Z" fill="#2B4277"/>
<path fill-rule="evenodd" clip-rule="evenodd" d="M113.66 106.879L113.675 113.295L114.305 113.298L114.325 107.875C114.325 107.376 114.187 107.082 114.66 106.995C114.784 106.972 118.027 106.875 118.247 107.132C118.517 107.615 118.236 112.233 118.352 113.296L118.966 113.295C119.057 112.272 118.993 107.777 118.992 106.416H113.656L113.659 106.879L113.66 106.879Z" fill="#2B4277"/>
<path fill-rule="evenodd" clip-rule="evenodd" d="M56.7068 113.295L57.3441 113.295L57.3713 111.112C57.3666 109.665 56.8467 109.908 60.7261 109.908C61.9168 109.908 61.1218 110.842 61.3802 113.295L61.9972 113.295L62.0202 106.414L61.3531 106.415C61.3531 107.012 61.3515 107.61 61.3531 108.207C61.3567 109.603 61.9064 109.367 57.9731 109.367C57.1547 109.367 57.3681 109.004 57.3708 108.207C57.3728 107.61 57.3687 107.012 57.3718 106.415H56.7031L56.7063 113.296L56.7068 113.295Z" fill="#2B4277"/>
<path fill-rule="evenodd" clip-rule="evenodd" d="M95.6862 112.607C95.5401 112.692 95.8517 112.647 95.36 112.738L93.3801 112.666L93.2725 111.361C93.2725 110.47 93.1953 110.388 93.403 110.078C94.0017 109.852 95.7911 109.973 96.3518 110.2L96.6008 110.366L96.6848 110.454L96.8513 110.781C96.6963 111.196 96.9651 111.585 96.6556 112.079C96.4087 112.474 96.0694 112.437 95.6857 112.607L95.6862 112.607ZM96.2693 113.188C97.0471 113.608 98.6423 111.571 97.4135 110.054C97.1969 109.786 96.6545 109.334 96.1858 109.535L94.103 109.492C92.9828 109.501 93.2725 109.346 93.2725 106.463L92.6289 106.429L92.7907 113.261L96.2693 113.188Z" fill="#2B4277"/>
<path fill-rule="evenodd" clip-rule="evenodd" d="M171.96 110.614C171.96 110.093 171.968 110.007 172.531 110.007C173.397 110.008 174.636 109.903 175.193 110.366C175.605 110.707 175.836 111.422 175.503 112.072C175.206 112.651 174.576 112.723 173.78 112.744C171.57 112.801 171.961 113.038 171.961 110.614L171.96 110.614ZM176.36 110.946C176.347 110.922 176.33 110.895 176.322 110.873C176.315 110.851 176.302 110.816 176.294 110.795C176.273 110.728 176.277 110.689 176.277 110.614C176.331 110.394 176.343 110.404 176.167 110.148C175.998 109.903 175.714 109.66 175.428 109.547C175.174 109.446 175.164 109.406 174.862 109.534C174.235 109.534 172.463 109.532 171.971 109.408L171.961 106.414L171.293 106.415L171.322 113.294C173.466 113.304 176.675 113.854 176.361 110.946L176.36 110.946Z" fill="#2B4277"/>
<path fill-rule="evenodd" clip-rule="evenodd" d="M110.825 88.1359C110.988 87.7242 111.584 87.2995 111.943 86.9737C112.214 86.728 112.676 85.993 113.089 85.993C114.764 85.9925 124.132 85.8931 124.994 86.0409C124.865 86.0696 125.192 85.7854 124.934 86.0997L124.184 87.0601C123.889 87.4088 123.611 87.8179 123.246 88.1333C122.594 88.1734 119.949 87.9564 119.629 88.2437C119.231 88.6112 119.688 100.582 119.446 101.623L116.418 101.624C116.3 101.019 116.378 92.7882 116.378 91.4369C116.378 90.8228 116.55 88.5565 116.222 88.2296C115.97 88.0126 111.915 88.1568 110.825 88.1354L110.825 88.1359ZM110.508 88.2827C112.116 88.2827 113.73 88.2973 115.337 88.2822C116.591 88.2702 116.252 88.0407 116.252 92.2677V100.819C116.245 102.084 115.749 101.815 119.416 101.815C119.801 101.815 119.667 101.152 119.666 100.736L119.665 88.531C119.727 88.2312 119.732 88.2874 120.072 88.2723C120.704 88.2452 123.062 88.405 123.395 88.1823L125.244 85.8754L113.505 85.8749C112.216 85.8645 112.59 86.069 112.03 86.729C112.019 86.742 112.002 86.7597 111.99 86.7722L111.907 86.855C111.439 87.2995 111.137 87.3474 110.508 88.2832L110.508 88.2827Z" fill="#2B4277"/>
<path fill-rule="evenodd" clip-rule="evenodd" d="M122.236 106.419L127.14 106.41L127.116 106.991C126.409 106.978 123.355 106.796 123.009 107.148C122.811 107.401 122.876 109.06 122.998 109.368C123.433 109.566 126.08 109.463 126.825 109.453L126.848 110.014C125.899 110.011 123.724 109.912 122.952 110.07C122.914 110.367 122.797 112.341 123.023 112.576C123.354 112.908 126.593 112.71 127.307 112.715L127.277 113.297L122.237 113.264L122.235 106.419H122.236ZM122.078 113.188C122.078 113.379 122.136 113.437 122.328 113.437H127.407V112.606H123.077L123.073 110.07C123.901 110.228 125.999 110.116 126.99 110.116V109.286H123.077V107.127H127.24V106.297H122.078V113.187V113.188Z" fill="#2B4277"/>
<path fill-rule="evenodd" clip-rule="evenodd" d="M48.5958 106.413L53.5073 106.43L53.4874 106.971C52.6731 107.05 49.8669 106.828 49.3966 107.061C49.2473 107.244 49.3183 107.052 49.2379 107.373L49.2551 109.124C49.2943 109.28 49.3167 109.286 49.3632 109.356C49.7682 109.57 52.4675 109.472 53.2019 109.456L53.2254 110.014C52.5823 110.015 49.6534 109.838 49.36 110.161C49.229 110.313 49.2666 110.416 49.265 110.691C49.264 110.914 49.2682 111.139 49.2682 111.361C49.2682 111.647 49.1946 112.379 49.3579 112.562C49.6168 112.842 53.0103 112.703 53.6806 112.72L53.6425 113.271H48.6068L48.5953 106.413H48.5958ZM48.481 113.437H53.8095V112.606H49.6466C49.2123 112.606 49.3971 111.727 49.3971 110.531C49.3971 110.307 49.4368 110.302 49.4801 110.116H53.393C53.393 109.094 53.5683 109.286 52.0608 109.286L49.7212 109.294C49.2332 109.248 49.4065 109.076 49.3955 107.956L49.4096 107.389C49.478 107.056 49.5568 107.124 49.8872 107.118L53.6425 107.127V106.297H48.4805V113.436L48.481 113.437Z" fill="#2B4277"/>
<path fill-rule="evenodd" clip-rule="evenodd" d="M136.567 96.1697C135.818 96.2545 131.14 96.2852 131.031 96.3633C130.812 96.5252 130.854 96.5559 130.851 96.9098L130.857 98.9085C130.857 99.8132 130.854 100.718 130.858 101.62H127.781C127.781 100.497 127.685 86.7226 127.828 85.9876L135.984 86.0407C136.042 86.0636 135.921 86.0569 136.224 86.1141C136.306 86.1297 136.4 86.123 136.484 86.124C136.374 85.8612 136.554 86.0027 136.303 85.9804C136.01 85.9538 136.301 85.9465 135.985 86.0413C135.914 85.7987 136.256 85.9169 135.663 85.8638L127.742 85.8757C127.502 86.9042 127.688 98.7805 127.657 100.986C127.642 102.055 127.64 101.819 128.741 101.815C131.441 101.806 130.989 102.262 130.989 100.238C130.989 99.7439 130.872 96.6834 131.063 96.4929C131.274 96.2826 135.019 96.4497 135.735 96.42C135.946 96.4112 136.06 96.3992 136.18 96.3706C136.639 96.2608 136.363 96.4278 136.567 96.1702V96.1697Z" fill="#2B4277"/>
<path fill-rule="evenodd" clip-rule="evenodd" d="M56.7048 106.413H57.3734C57.3703 107.011 57.3745 107.609 57.3724 108.206C57.3693 109.003 57.1558 109.366 57.9748 109.366C61.908 109.366 61.3578 109.602 61.3547 108.206C61.3531 107.609 61.3547 107.012 61.3547 106.414L62.0218 106.413L61.9988 113.293L61.3818 113.294C61.1234 110.841 61.9179 109.907 60.7278 109.907C56.8483 109.907 57.3682 109.663 57.3729 111.111L57.3458 113.293L56.7084 113.294L56.7053 106.412L56.7048 106.413ZM56.5591 113.436H57.4752V110.115C58.1251 109.964 60.5717 109.964 61.2216 110.115V113.436H62.1371V106.297H61.2216V108.954C61.2216 109.145 61.1636 109.203 60.9715 109.203H57.4747V106.297H56.5586V113.437L56.5591 113.436Z" fill="#2B4277"/>
<path fill-rule="evenodd" clip-rule="evenodd" d="M113.656 106.415H118.992C118.993 107.777 119.056 112.271 118.966 113.294L118.352 113.295C118.235 112.233 118.517 107.614 118.247 107.131C118.026 106.874 114.784 106.972 114.66 106.994C114.187 107.081 114.325 107.376 114.326 107.874L114.305 113.297L113.675 113.294L113.66 106.878L113.657 106.415L113.656 106.415ZM113.504 113.437H114.419V107.376C114.419 107.185 114.477 107.127 114.67 107.127H118.166V113.187C118.166 113.526 118.427 113.436 119.082 113.436V106.297H113.504V113.436L113.504 113.437Z" fill="#2B4277"/>
<path fill-rule="evenodd" clip-rule="evenodd" d="M84.7081 110.048C84.9159 110.138 84.8663 110.175 84.8663 109.951C84.6778 109.951 84.7081 109.894 84.7081 110.048L84.6653 113.294L84.03 113.296L84.0029 106.415H84.6705C84.7149 110.052 83.9413 109.35 87.6971 109.367C88.9994 109.373 88.6894 109.539 88.6873 106.462L89.3194 106.408L89.3168 113.271C88.9394 113.271 88.7254 113.377 88.6857 113.091C88.6591 112.9 88.6915 112.339 88.6915 112.108C88.6915 111.419 88.7155 110.724 88.668 110.038L88.3636 109.95L88.5103 110.306C88.539 110.43 88.5349 110.564 88.5343 110.693L88.5296 113.436H89.4452V106.297H88.5296L88.539 108.797C88.5255 109.185 88.5124 109.198 88.1225 109.212C87.0529 109.25 85.8669 109.203 84.7828 109.203V106.297H83.8672V113.437H84.7828C84.7828 112.568 84.906 110.795 84.7076 110.048H84.7081Z" fill="#2B4277"/>
<path fill-rule="evenodd" clip-rule="evenodd" d="M98.8842 113.295H99.5226L99.5241 106.416L98.8555 106.41L98.8842 113.295Z" fill="#2B4277"/>
<path fill-rule="evenodd" clip-rule="evenodd" d="M177.572 106.462C177.572 107.297 177.482 112.978 177.643 113.261L178.205 113.27L178.207 106.426L177.572 106.462Z" fill="#2B4277"/>
<path fill-rule="evenodd" clip-rule="evenodd" d="M152.801 92.2792C153.026 92.376 152.992 92.402 152.884 92.185C153.105 92.2953 153.077 92.3229 152.967 92.1022C153.181 92.1439 153.195 92.3136 153.05 91.9362C153.271 92.0465 153.244 92.0741 153.134 91.8534C153.347 91.8951 153.362 92.0648 153.217 91.6874C153.438 91.7977 153.41 91.8253 153.3 91.6041C153.513 91.6452 153.529 91.8149 153.384 91.4417C153.607 91.5479 153.577 91.5745 153.467 91.3553C153.688 91.4657 153.66 91.4933 153.55 91.272C153.763 91.3777 153.716 91.4209 153.716 91.1888C153.525 91.1888 153.55 91.1294 153.55 91.272L153.467 91.3553L153.384 91.4417L153.3 91.6041L153.217 91.6874L153.134 91.8534L153.05 91.9362C153.034 91.9549 153.01 91.9784 153.002 91.9914C152.994 92.0023 152.98 92.0585 152.974 92.0465C152.969 92.0361 152.967 92.0835 152.967 92.1022L152.884 92.185L152.801 92.2792C152.63 92.6831 152.253 93.0464 152.06 93.3686L146.464 101.476C146.245 101.697 145.832 101.626 145.474 101.624C144.724 101.62 143.968 101.633 143.22 101.624C143.092 101.078 143.142 86.4522 143.226 86.1868L144.309 86.2065C144.365 86.2305 144.367 86.2435 144.547 86.2841C144.579 86.2914 144.678 86.2898 144.724 86.2898C144.724 85.9744 144.525 86.142 144.308 86.2065C144.22 85.9052 144.466 86.1378 144.139 86.0436L143.059 86.041L143.051 101.49C143.096 101.971 143.431 101.818 143.975 101.815C144.779 101.809 145.585 101.814 146.389 101.814L152.726 92.6909C152.94 92.3089 152.879 92.6956 152.801 92.2792Z" fill="#2B4277"/>
<path fill-rule="evenodd" clip-rule="evenodd" d="M163.539 109.12C163.869 108.706 163.788 107.121 163.788 106.463C164.192 106.328 167.118 106.415 167.801 106.415L167.8 111.777C167.788 113.328 168.337 112.353 168.446 112.855C168.447 113.472 168.595 114.459 168.368 114.961H167.931C167.742 113.081 168.67 113.294 165.37 113.294C164.927 113.294 163.185 113.17 162.965 113.454C162.753 113.76 162.941 114.524 162.828 114.879L162.373 114.961C162.187 114.443 162.312 113.394 162.311 112.772C162.606 112.619 162.694 112.83 162.932 112.493C163.209 112.101 163.523 110.911 163.539 110.364C163.55 110.338 163.558 110.307 163.564 110.283C163.57 110.26 163.581 110.232 163.587 110.203C163.593 110.174 163.6 110.153 163.605 110.121L163.622 109.7C163.396 109.849 163.498 109.662 163.469 109.958C163.437 110.285 163.462 110.091 163.539 110.364C163.226 110.339 163.447 110.324 163.364 110.605C163.359 110.624 163.309 110.943 163.306 110.962L162.867 112.351C162.701 112.675 162.667 112.606 162.207 112.606V115.096C163.208 115.096 163.04 115.387 163.04 113.436C168.739 113.436 167.785 112.97 167.785 115.096C168.719 115.096 168.632 115.223 168.619 114.268C168.612 113.715 168.618 113.159 168.618 112.606C167.708 112.606 167.948 112.505 167.952 111.527V106.297H163.622C163.622 107.351 163.539 108.114 163.539 109.119V109.12Z" fill="#2B4277"/>
<path fill-rule="evenodd" clip-rule="evenodd" d="M36.4913 120.41L36.1071 120.024C34.6455 119.129 34.8026 119.289 33.1458 118.088L31.9494 117.21C31.3742 116.829 30.9388 116.4 30.4398 115.978C30.4262 115.967 30.4064 115.953 30.3928 115.942C30.2054 115.789 30.1632 115.732 30.0003 115.593C29.8515 115.466 29.7675 115.432 29.6198 115.305C29.4856 115.19 29.4146 115.075 29.3076 114.955C29.0805 114.7 28.8211 114.544 28.5638 114.287L27.1878 112.837C26.386 112.101 25.3295 110.621 25.0758 110.37C24.8628 110.159 25.0539 110.323 24.9401 110.284L24.7109 110.199C25.1708 110.837 25.1118 111.054 25.7779 111.912L27.3261 113.938L32.0512 118.535C32.3013 118.731 32.1765 118.717 32.4453 118.892L35.4964 121.168C35.8383 121.417 36.0387 121.384 36.1896 121.615C36.2146 121.563 36.3123 121.608 36.1598 121.407C35.8456 121.184 35.6598 121.075 35.3607 120.876C35.0595 120.677 34.8674 120.517 34.5912 120.315L31.6702 118.081C31.0208 117.353 31.4133 118.021 30.8475 117.323C30.6512 117.081 29.2382 115.93 28.4296 114.92L27.205 113.567C26.9941 113.275 26.8386 113.099 26.6209 112.821C26.2096 112.296 25.864 111.816 25.5033 111.279C25.8416 111.402 26.4132 112.366 26.9748 112.801C26.9884 112.812 27.0088 112.825 27.0223 112.837L27.1836 113.008C27.5923 113.586 27.1408 113.12 27.8972 113.873C28.1253 114.101 28.2955 114.267 28.5215 114.496C29.056 115.039 28.8336 114.773 29.1312 114.968L30.1606 115.934C30.3245 116.115 30.2947 116.106 30.4972 116.263L30.884 116.541C30.8992 116.551 30.9216 116.562 30.9362 116.572C30.9509 116.582 30.9728 116.594 30.9869 116.604L31.1591 116.765C31.5819 117.216 34.4534 119.198 34.8246 119.419L36.175 120.227C36.1932 120.238 36.212 120.251 36.2308 120.262C36.2507 120.273 36.2705 120.286 36.2903 120.298L36.4229 120.373C36.4412 120.384 36.4699 120.398 36.4934 120.411L36.4913 120.41ZM36.1593 121.489L36.3253 121.654C36.3253 121.434 36.3806 121.489 36.1593 121.489Z" fill="#2B4277"/>
<path fill-rule="evenodd" clip-rule="evenodd" d="M96.2701 113.188L92.7915 113.261L92.6297 106.429L93.2733 106.463C93.2733 109.346 92.9836 109.502 94.1038 109.493L96.1865 109.535C96.0827 109.287 96.3343 109.423 95.6176 109.351C94.6138 109.252 94.488 109.286 93.4388 109.286V106.297C92.2585 106.297 92.4397 105.893 92.4397 108.29L92.4339 112.861C92.424 113.698 92.5425 113.431 94.8544 113.437C95.0898 113.437 95.3639 113.449 95.5941 113.429C96.0879 113.383 96.1359 113.357 96.2696 113.188H96.2701Z" fill="#2B4277"/>
<path fill-rule="evenodd" clip-rule="evenodd" d="M176.362 110.946C176.578 110.514 176.396 110.658 176.279 110.614C176.279 110.689 176.275 110.729 176.295 110.795C176.303 110.817 176.316 110.852 176.324 110.874C176.331 110.895 176.349 110.922 176.362 110.946C176.675 113.854 173.466 113.304 171.323 113.294L171.294 106.415L171.961 106.414L171.972 109.408C172.463 109.532 174.236 109.534 174.863 109.534C174.728 109.215 174.941 109.462 174.608 109.375C174.585 109.368 174.349 109.357 174.294 109.351C173.29 109.251 173.164 109.286 172.115 109.286V106.297H171.199V113.436C173.27 113.436 176.14 113.895 176.511 111.759C176.715 110.587 176.396 110.951 176.361 110.945L176.362 110.946Z" fill="#2B4277"/>
<path fill-rule="evenodd" clip-rule="evenodd" d="M177.574 106.462L178.21 106.426L178.208 113.271L177.646 113.261C177.485 112.979 177.574 107.297 177.574 106.462ZM177.362 106.546C177.362 107.794 177.245 112.58 177.446 113.436H178.361V106.297C177.651 106.297 177.362 106.199 177.362 106.546V106.546Z" fill="#2B4277"/>
<path fill-rule="evenodd" clip-rule="evenodd" d="M66.0964 110.114L70.0468 110.117C70.0468 109.595 70.1982 109.317 69.7216 109.279L66.1334 109.287V107.128H70.2963V106.298H65.3003L65.2695 106.463C66.0348 106.287 69.1761 106.415 70.1836 106.415L70.1711 106.987C69.1782 106.992 66.099 106.727 65.9612 107.303C65.9424 107.382 65.8557 109.043 66.0463 109.294C66.2535 109.543 66.4518 109.461 66.8814 109.458L69.8563 109.458L69.9033 110.014L67.048 110.015C66.6789 110.014 66.3735 109.958 66.0943 110.114H66.0964Z" fill="#2B4277"/>
<path fill-rule="evenodd" clip-rule="evenodd" d="M133.903 110.283C134.336 110.498 134.192 110.316 134.236 110.2L133.903 110.283C133.373 110.366 133.02 110.368 132.487 110.368C132.196 110.368 131.259 110.297 131.086 110.466C130.769 110.886 131 112.644 130.94 113.296H130.32L130.297 106.416C131.253 106.416 132.471 106.351 133.397 106.445C134.289 106.536 134.693 106.651 135.151 107.278L135.34 107.49C135.355 107.504 135.379 107.527 135.402 107.543C135.243 106.66 134.25 106.314 133.407 106.295C132.338 106.271 131.23 106.298 130.156 106.298V113.437H131.072V110.532C131.571 110.532 132.071 110.53 132.571 110.532L133.66 110.456C133.988 110.379 133.856 110.568 133.903 110.283Z" fill="#2B4277"/>
<path fill-rule="evenodd" clip-rule="evenodd" d="M98.8564 106.41L99.5251 106.417L99.5235 113.295H98.8851L98.8564 106.41V106.41ZM98.6862 106.547C98.6862 107.795 98.5693 112.581 98.7698 113.437C99.168 113.437 99.6853 113.563 99.6853 113.188V106.298C98.9749 106.298 98.6862 106.2 98.6862 106.547V106.547Z" fill="#2B4277"/>
<path fill-rule="evenodd" clip-rule="evenodd" d="M143.559 113.271L143.393 113.298L138.329 113.326L138.289 106.355H143.325L143.319 107.052C142.618 107.059 139.203 106.764 139.077 107.302L139.119 109.32L139.147 109.368L142.977 109.452V110.116C143.185 110.029 143.131 110.262 143.166 109.78C143.211 109.167 143.034 109.461 142.977 109.452C142.998 109.191 143.244 109.329 142.739 109.274L139.147 109.369C139.289 106.94 138.648 107.126 140.146 107.128C141.228 107.129 142.31 107.128 143.392 107.128V106.298H138.23V113.437L143.232 113.45C143.746 113.392 143.385 113.491 143.559 113.272V113.271Z" fill="#2B4277"/>
<path fill-rule="evenodd" clip-rule="evenodd" d="M107.876 112.666V112.606L103.843 112.608C103.469 112.537 103.594 112.376 103.596 111.527C103.6 109.749 102.794 110.116 107.465 110.116L107.483 109.972C106.671 110.119 104.045 109.825 103.598 110.118C103.421 110.402 103.417 112.323 103.598 112.604C103.91 112.809 107.321 112.773 107.876 112.665L107.845 113.294H102.835L102.834 106.346L102.753 106.791C102.738 108.029 102.704 112.844 102.796 113.293C103.2 113.427 107.425 113.413 107.94 113.308C108.1 112.565 107.898 112.682 107.876 112.665V112.666Z" fill="#2B4277"/>
<path fill-rule="evenodd" clip-rule="evenodd" d="M102.182 101.483C102.302 101.768 102.029 101.578 102.514 101.655C102.59 101.667 102.782 101.657 102.909 101.672C103.918 101.792 107.987 101.732 109.092 101.732C109.023 101.472 109.067 101.617 108.916 101.409L107.261 99.2413C105.9 99.2413 103.393 99.4318 102.38 98.967L102.016 98.7432C102.424 99.9528 106.455 99.0513 107.225 99.4573L108.425 101.061C108.622 101.277 108.708 101.269 108.827 101.551C106.79 101.698 104.236 101.562 102.181 101.483H102.182Z" fill="#2B4277"/>
<path fill-rule="evenodd" clip-rule="evenodd" d="M41.655 108.871L41.572 109.784C41.8064 109.687 41.7087 109.954 41.7557 109.464C41.7771 109.24 41.7082 109.061 41.655 108.871C41.9327 108.893 41.7672 109.134 41.833 108.634C41.8392 108.584 41.822 108.21 41.8215 108.124C41.8184 107.775 41.8325 107.454 41.7975 107.106L44.3187 107.129V112.607C43.4235 112.607 41.8706 112.467 41.0735 112.689C41.1779 112.477 41.2207 112.524 40.9889 112.524C40.9889 112.715 40.9289 112.689 41.0735 112.689C41.6054 112.746 44.0958 112.853 44.3746 112.579C44.4743 112.472 44.4268 112.686 44.4847 112.358C44.4962 112.293 44.4931 112.104 44.4931 112.029C44.4925 111.779 44.4899 111.529 44.4894 111.278L44.4946 107.453C44.4414 106.859 44.0269 106.986 43.1531 106.986C42.7209 106.986 42.1133 106.911 41.797 107.106C41.6331 107.462 41.6555 108.4 41.6545 108.871L41.655 108.871Z" fill="#2B4277"/>
<path fill-rule="evenodd" clip-rule="evenodd" d="M107.876 112.606V112.666C107.898 112.682 108.1 112.565 107.94 113.309C107.425 113.414 103.2 113.427 102.796 113.293C102.704 112.844 102.738 108.03 102.753 106.791L102.834 106.346C103.953 106.387 106.877 106.201 107.733 106.403L107.73 107.009C106.854 107.209 103.89 106.88 103.629 107.162C103.453 107.397 103.515 109.032 103.602 109.361C104.602 109.586 106.337 109.315 107.447 109.442L107.483 109.972L107.465 110.116C107.621 110.031 107.591 110.188 107.611 109.78C107.643 109.173 107.521 109.461 107.447 109.442C107.432 109.12 107.567 109.379 107.333 109.296C107.301 109.285 107.061 109.279 107.015 109.28C103.104 109.306 103.597 109.641 103.596 108.123C103.595 107.665 103.459 107.186 103.842 107.123L107.842 107.127V106.297H102.68V113.436H108.008L107.876 112.606V112.606Z" fill="#2B4277"/>
<path fill-rule="evenodd" clip-rule="evenodd" d="M66.1514 112.618L66.0929 110.114C65.905 110.416 65.9807 110.964 65.9807 111.361C65.9807 111.584 65.9786 111.805 65.977 112.027C65.9718 112.78 66.0459 112.556 66.1519 112.618L70.4077 112.659L70.4176 112.773L70.3686 113.326L65.2384 113.298L65.2677 106.462L65.2984 106.297C65.099 106.454 65.1204 106.051 65.1319 107.044L65.1325 113.436H70.461V112.606L66.1524 112.618L66.1514 112.618Z" fill="#2B4277"/>
<path fill-rule="evenodd" clip-rule="evenodd" d="M143.395 113.298L143.561 113.271V112.607C142.396 112.607 141.229 112.602 140.064 112.607C139.064 112.611 139.141 112.78 139.148 111.777C139.153 111.149 139.111 110.632 139.232 110.116H142.979V109.451L139.149 109.368L139.121 109.32C139.369 109.608 142.378 109.456 142.941 109.457L142.988 110.013C142.341 110.017 139.397 109.84 139.116 110.166C138.971 110.319 139.02 110.409 139.021 110.692C139.033 113.349 138.347 112.679 143.435 112.714L143.395 113.297V113.298Z" fill="#2B4277"/>
<path fill-rule="evenodd" clip-rule="evenodd" d="M75.041 108.207C74.923 108.38 74.9319 108.423 75.1407 108.755C75.2096 108.865 75.4121 109.188 75.4398 109.218C75.6334 109.43 76.2979 109.679 76.5934 109.421C76.8559 109.092 76.6931 106.999 76.6946 106.415H77.3748C77.4489 109.725 76.9708 109.469 78.2048 109.534C78.2575 109.471 78.2721 109.332 78.2883 109.285L77.5392 109.368V106.297H76.5401V109.368C75.4267 109.368 75.4445 109.002 75.0415 108.207H75.041Z" fill="#2B4277"/>
<path fill-rule="evenodd" clip-rule="evenodd" d="M174.029 112.607H172.114V110.365C172.114 109.975 172.626 110.116 173.613 110.116C174.058 110.116 174.67 110.186 174.964 110.346C175.82 110.814 175.881 112.607 174.029 112.607H174.029ZM171.96 110.614C171.961 113.038 171.57 112.8 173.779 112.743C174.576 112.723 175.206 112.651 175.503 112.071C175.835 111.422 175.605 110.707 175.193 110.365C174.635 109.903 173.397 110.008 172.53 110.007C171.968 110.006 171.959 110.093 171.959 110.614L171.96 110.614Z" fill="#2B4277"/>
<path fill-rule="evenodd" clip-rule="evenodd" d="M148.97 109.286H147.222V107.128C147.902 107.128 149.602 107.004 150.033 107.396C150.406 107.736 150.835 109.286 148.97 109.286ZM147.034 109.306C147.557 109.467 149.163 109.509 149.74 109.313C150.415 109.083 150.795 108.037 150.185 107.412C149.667 106.882 148.622 106.98 147.72 106.985C146.951 106.989 146.989 107.084 146.997 107.792C147.003 108.296 146.966 108.808 147.034 109.306L147.034 109.306Z" fill="#2B4277"/>
<path fill-rule="evenodd" clip-rule="evenodd" d="M93.3793 112.666L95.3592 112.737C95.8509 112.646 95.5393 112.692 95.6854 112.606C94.9395 112.606 94.0991 112.508 93.3793 112.666C93.5019 112.092 93.4868 110.678 93.4027 110.078C93.9018 110.153 94.4295 110.113 94.939 110.113C95.4187 110.114 95.9924 110.325 96.3515 110.199C96.3337 110.418 96.2398 110.313 96.352 110.447L96.6005 110.365C96.4919 110.584 96.4616 110.557 96.6845 110.453L96.5906 110.692C96.6647 110.748 96.804 110.763 96.851 110.779L96.6845 110.452L96.6005 110.364L96.3515 110.198C95.7909 109.972 94.0015 109.85 93.4027 110.077C93.1945 110.386 93.2717 110.468 93.2722 111.36L93.3798 112.665L93.3793 112.666Z" fill="#2B4277"/>
<path fill-rule="evenodd" clip-rule="evenodd" d="M74.707 111.444L74.8412 111.357C74.8548 111.346 74.8835 111.327 74.8991 111.313C74.9132 111.3 74.9336 111.282 74.9477 111.268C75.1747 111.046 75.4817 110.203 76.2313 110.116C76.3993 110.025 76.0914 110.005 76.5674 110.034L76.6327 113.299L77.3697 113.358C77.4438 112.48 77.2204 110.678 77.4814 110.05L77.8035 110.009L77.8458 110.116C78.1339 110.103 78.0144 110.101 78.2963 110.24C78.3166 110.25 78.3453 110.268 78.3699 110.282C78.3646 110.27 78.3349 110.091 78.2869 110.033L77.804 110.009C77.4788 109.936 77.3969 110.03 77.3713 110.358C77.3139 111.091 77.447 112.341 77.3462 113.295L76.7162 113.297C76.6703 112.704 76.8639 110.363 76.5815 110.077C76.4938 109.987 76.7407 109.981 76.3278 109.977C76.3127 109.977 76.0052 110.025 75.9755 110.033C75.6722 110.123 75.2442 110.57 75.0568 110.809L74.707 111.444Z" fill="#2B4277"/>
<path fill-rule="evenodd" clip-rule="evenodd" d="M77.845 110.116L77.8027 110.01L77.4806 110.05C77.2196 110.678 77.4431 112.481 77.3689 113.358L76.6319 113.299L76.5666 110.034C76.0911 110.006 76.3986 110.026 76.2305 110.116L76.5666 110.125L76.5364 113.437C77.8935 113.437 77.3047 113.492 77.3705 113.286C77.6216 113.192 77.49 113.581 77.549 113.034L77.4806 110.051L77.845 110.117V110.116Z" fill="#2B4277"/>
</g>
<g style="mix-blend-mode:overlay">
<path d="M100 200C143.819 200 168.179 200 184.09 184.09C200 168.179 200 143.819 200 100C200 56.1806 200 31.8207 184.09 15.9103C168.179 -2.6491e-06 143.819 0 100 0C56.1806 0 31.8207 -2.6491e-06 15.9103 15.9103C-2.6491e-06 31.8207 0 56.1806 0 100C0 143.819 -2.6491e-06 168.179 15.9103 184.09C31.8207 200 56.1806 200 100 200Z" fill="url(#paint0_linear_381_3103)"/>
</g>
<path d="M100 200C143.819 200 168.179 200 184.09 184.09C200 168.179 200 143.819 200 100C200 56.1806 200 31.8207 184.09 15.9103C168.179 -2.86102e-06 143.819 0 100 0C56.1806 0 31.8207 -2.86102e-06 15.9103 15.9103C-2.86102e-06 31.8207 0 56.1806 0 100C0 143.819 -2.86102e-06 168.179 15.9103 184.09C31.8207 200 56.1806 200 100 200Z" fill="url(#paint1_linear_381_3103)"/>
<g style="mix-blend-mode:soft-light" filter="url(#filter0_f_381_3103)">
<path d="M100 1.5C121.952 1.5 138.87 1.50342 152.293 3.47266C165.665 5.43448 175.383 9.32443 183.029 16.9707C190.676 24.617 194.566 34.3347 196.527 47.707C198.497 61.13 198.5 78.0476 198.5 100C198.5 121.952 198.497 138.87 196.527 152.293C194.566 165.665 190.676 175.383 183.029 183.029C175.383 190.676 165.665 194.566 152.293 196.527C138.87 198.497 121.952 198.5 100 198.5C78.0476 198.5 61.13 198.497 47.707 196.527C34.3347 194.566 24.617 190.676 16.9707 183.029C9.32443 175.383 5.43448 165.665 3.47266 152.293C1.50342 138.87 1.5 121.952 1.5 100C1.5 78.0476 1.50342 61.13 3.47266 47.707C5.43448 34.3347 9.32443 24.617 16.9707 16.9707C24.617 9.32443 34.3347 5.43448 47.707 3.47266C61.13 1.50342 78.0476 1.5 100 1.5Z" stroke="url(#paint2_linear_381_3103)" stroke-width="3"/>
</g>
<g style="mix-blend-mode:soft-light" filter="url(#filter1_f_381_3103)">
<path d="M100 2C121.967 2 138.842 2.00504 152.221 3.96777C165.532 5.92062 175.133 9.78097 182.676 17.3242C190.219 24.8675 194.079 34.4684 196.032 47.7793C197.995 61.1578 198 78.0333 198 100C198 121.967 197.995 138.842 196.032 152.221C194.079 165.532 190.219 175.133 182.676 182.676C175.133 190.219 165.532 194.079 152.221 196.032C138.842 197.995 121.967 198 100 198C78.0333 198 61.1578 197.995 47.7793 196.032C34.4684 194.079 24.8675 190.219 17.3242 182.676C9.78097 175.133 5.92062 165.532 3.96777 152.221C2.00504 138.842 2 121.967 2 100C2 78.0333 2.00504 61.1578 3.96777 47.7793C5.92062 34.4684 9.78096 24.8675 17.3242 17.3242C24.8675 9.78096 34.4684 5.92062 47.7793 3.96777C61.1578 2.00504 78.0333 2 100 2Z" stroke="url(#paint3_linear_381_3103)" stroke-width="4"/>
</g>
</g>
<defs>
<filter id="filter0_f_381_3103" x="-2" y="-2" width="204" height="204" filterUnits="userSpaceOnUse" color-interpolation-filters="sRGB">
<feFlood flood-opacity="0" result="BackgroundImageFix"/>
<feBlend mode="normal" in="SourceGraphic" in2="BackgroundImageFix" result="shape"/>
<feGaussianBlur stdDeviation="1" result="effect1_foregroundBlur_381_3103"/>
</filter>
<filter id="filter1_f_381_3103" x="-6" y="-6" width="212" height="212" filterUnits="userSpaceOnUse" color-interpolation-filters="sRGB">
<feFlood flood-opacity="0" result="BackgroundImageFix"/>
<feBlend mode="normal" in="SourceGraphic" in2="BackgroundImageFix" result="shape"/>
<feGaussianBlur stdDeviation="3" result="effect1_foregroundBlur_381_3103"/>
</filter>
<linearGradient id="paint0_linear_381_3103" x1="-2.34568" y1="4.00344e-07" x2="52.4061" y2="234.466" gradientUnits="userSpaceOnUse">
<stop stop-opacity="0"/>
<stop offset="0.605667" stop-opacity="0.0781197"/>
<stop offset="1" stop-opacity="0.26"/>
</linearGradient>
<linearGradient id="paint1_linear_381_3103" x1="-2.34568" y1="4.00344e-07" x2="52.4061" y2="234.466" gradientUnits="userSpaceOnUse">
<stop offset="0.140625" stop-color="white" stop-opacity="0.26"/>
<stop offset="0.640625" stop-color="white" stop-opacity="0.0781197"/>
<stop offset="1" stop-color="white" stop-opacity="0"/>
</linearGradient>
<linearGradient id="paint2_linear_381_3103" x1="100" y1="200" x2="100" y2="168.75" gradientUnits="userSpaceOnUse">
<stop/>
<stop offset="1" stop-opacity="0"/>
</linearGradient>
<linearGradient id="paint3_linear_381_3103" x1="100" y1="0" x2="100" y2="100" gradientUnits="userSpaceOnUse">
<stop stop-color="white"/>
<stop offset="1" stop-color="white" stop-opacity="0"/>
</linearGradient>
<clipPath id="clip0_381_3103">
<rect width="200" height="200" fill="white"/>
</clipPath>
<clipPath id="clip1_381_3103">
<rect width="158.065" height="83.0645" fill="white" transform="translate(20.9688 58.0645)"/>
</clipPath>
</defs>
</svg>
