<svg width="32" height="32" viewBox="0 0 32 32" fill="none" xmlns="http://www.w3.org/2000/svg">
<path d="M16 31C24.2843 31 31 24.2843 31 16C31 7.71573 24.2843 1 16 1C7.71573 1 1 7.71573 1 16C1 24.2843 7.71573 31 16 31Z" fill="#2A5F9E"/>
<path d="M16 5.8999L16.35 6.9999H17.5L16.6 7.6999L16.95 8.7999L16 8.0999L15.05 8.7999L15.4 7.6999L14.5 6.9999H15.65L16 5.8999ZM16 22.8999L16.35 23.9999H17.5L16.6 24.6499L16.95 25.7999L16 25.0999L15.05 25.7999L15.4 24.6499L14.5 23.9999H15.65L16 22.8999ZM20.2 21.4999L20.55 22.5999H21.75L20.8 23.2999L21.15 24.3999L20.2 23.6999L19.25 24.3999L19.65 23.2999L18.7 22.5999H19.85L20.2 21.4999ZM23.1 18.5999L23.45 19.6999H24.65L23.7 20.3999L24.05 21.4999L23.1 20.7999L22.15 21.4999L22.55 20.3999L21.6 19.6999H22.75L23.1 18.5999ZM24.5 14.3999L24.85 15.4999H26L25.05 16.1999L25.4 17.2999L24.5 16.5999L23.55 17.2999L23.9 16.1999L22.95 15.4999H24.1L24.5 14.3999ZM23.1 10.1499L23.45 11.2999H24.65L23.7 11.9499L24.05 13.0499L23.1 12.3999L22.15 13.0499L22.55 11.9499L21.6 11.2999H22.75L23.1 10.1499ZM20.2 7.2499L20.55 8.3999H21.75L20.8 9.0499L21.15 10.1499L20.2 9.4999L19.25 10.1499L19.65 9.0499L18.7 8.3999H19.85L20.2 7.2499ZM11.8 21.4999L11.45 22.5999H10.25L11.2 23.2999L10.85 24.3999L11.8 23.6999L12.75 24.3999L12.35 23.2999L13.3 22.5999H12.15L11.8 21.4999ZM8.9 18.5999L8.55 19.6999H7.35L8.3 20.3999L7.95 21.4999L8.9 20.7999L9.85 21.4999L9.45 20.3999L10.4 19.6999H9.25L8.9 18.5999ZM7.5 14.3999L7.15 15.4999H6L6.95 16.1999L6.6 17.2999L7.5 16.5999L8.45 17.2999L8.1 16.1999L9.05 15.4999H7.9L7.5 14.3999ZM8.9 10.1499L8.55 11.2999H7.35L8.3 11.9499L7.95 13.0499L8.9 12.3999L9.85 13.0499L9.45 11.9499L10.4 11.2999H9.25L8.9 10.1499ZM11.8 7.2499L11.45 8.3999H10.25L11.2 9.0499L10.85 10.1499L11.8 9.4999L12.75 10.1499L12.35 9.0499L13.3 8.3999H12.15L11.8 7.2499Z" fill="#FFCE31"/>
</svg>
