<svg width="32" height="32" viewBox="0 0 32 32" fill="none" xmlns="http://www.w3.org/2000/svg">
<path d="M24 3.3C21.65 1.85 18.95 1 16 1V3.3H24Z" fill="#ED4C5C"/>
<path d="M16 5.5998H26.8C25.95 4.7498 25 3.9498 24 3.2998H16V5.5998Z" fill="white"/>
<path d="M16 7.9001H28.65C28.1 7.0501 27.5 6.3001 26.85 5.6001H16V7.9001Z" fill="#ED4C5C"/>
<path d="M16 10.1999H29.85C29.5 9.3999 29.1 8.5999 28.65 7.8999H16V10.1999Z" fill="white"/>
<path d="M16 12.5002H30.6C30.4 11.7002 30.15 10.9502 29.85 10.2002H16V12.5002Z" fill="#ED4C5C"/>
<path d="M16 14.8498H30.95C30.9 14.0498 30.75 13.2998 30.6 12.5498H16V14.8498Z" fill="white"/>
<path d="M30.95 14.8501H16V16.0001H1C1 16.4001 1 16.7501 1.05 17.1501H30.95C31 16.7501 31 16.4001 31 16.0001C31 15.6001 31 15.2001 30.95 14.8501Z" fill="#ED4C5C"/>
<path d="M1.40078 19.4504H30.6008C30.8008 18.7004 30.9008 17.9504 30.9508 17.1504H1.05078C1.10078 17.9004 1.20078 18.7004 1.40078 19.4504Z" fill="white"/>
<path d="M2.15039 21.7502H29.8504C30.1504 21.0002 30.4004 20.2502 30.6004 19.4502H1.40039C1.60039 20.2502 1.85039 21.0002 2.15039 21.7502Z" fill="#ED4C5C"/>
<path d="M3.35039 24.05H28.6504C29.1004 23.3 29.5004 22.55 29.8504 21.75H2.15039C2.50039 22.55 2.90039 23.3 3.35039 24.05Z" fill="white"/>
<path d="M5.14961 26.3498H26.8496C27.4996 25.6498 28.1496 24.8498 28.6496 24.0498H3.34961C3.84961 24.8998 4.49961 25.6498 5.14961 26.3498Z" fill="#ED4C5C"/>
<path d="M7.95039 28.6496H24.0504C25.1004 27.9996 26.0004 27.1996 26.8504 26.3496H5.15039C6.00039 27.2496 6.95039 27.9996 7.95039 28.6496Z" fill="white"/>
<path d="M15.9992 31.0004C18.9492 31.0004 21.6992 30.1504 24.0492 28.6504H7.94922C10.2992 30.1504 13.0492 31.0004 15.9992 31.0004Z" fill="#ED4C5C"/>
<path d="M8 3.3C6.95 3.95 6 4.75 5.15 5.6C4.45 6.3 3.85 7.1 3.35 7.9C2.9 8.65 2.45 9.4 2.15 10.2C1.85 10.95 1.6 11.7 1.4 12.5C1.2 13.25 1.1 14 1.05 14.8C1 15.2 1 15.6 1 16H16V1C13.05 1 10.35 1.85 8 3.3Z" fill="#428BC1"/>
<path d="M12.4992 1.5L12.7492 2.25H13.4992L12.8992 2.75L13.0992 3.5L12.4992 3.05L11.8992 3.5L12.0992 2.75L11.4992 2.25H12.2492L12.4992 1.5ZM14.4992 4.5L14.7492 5.25H15.4992L14.8992 5.75L15.0992 6.5L14.4992 6.05L13.8992 6.5L14.0992 5.75L13.4992 5.25H14.2492L14.4992 4.5ZM10.4992 4.5L10.7492 5.25H11.4992L10.8992 5.75L11.0992 6.5L10.4992 6.05L9.89922 6.5L10.0992 5.75L9.49922 5.25H10.2492L10.4992 4.5ZM12.4992 7.5L12.7492 8.25H13.4992L12.8992 8.75L13.0992 9.5L12.4992 9.05L11.8992 9.5L12.0992 8.75L11.4992 8.25H12.2492L12.4992 7.5ZM8.49922 7.5L8.74922 8.25H9.49922L8.89922 8.75L9.09922 9.5L8.49922 9.05L7.89922 9.5L8.09922 8.75L7.49922 8.25H8.24922L8.49922 7.5ZM4.49922 7.5L4.74922 8.25H5.49922L4.89922 8.75L5.09922 9.5L4.49922 9.05L3.89922 9.5L4.09922 8.75L3.49922 8.25H4.24922L4.49922 7.5ZM14.4992 10.5L14.7492 11.25H15.4992L14.8992 11.75L15.0992 12.5L14.4992 12.05L13.8992 12.5L14.0992 11.75L13.4992 11.25H14.2492L14.4992 10.5ZM10.4992 10.5L10.7492 11.25H11.4992L10.8992 11.75L11.0992 12.5L10.4992 12.05L9.89922 12.5L10.0992 11.75L9.49922 11.25H10.2492L10.4992 10.5ZM6.49922 10.5L6.74922 11.25H7.49922L6.89922 11.75L7.09922 12.5L6.49922 12.05L5.89922 12.5L6.09922 11.75L5.49922 11.25H6.24922L6.49922 10.5ZM12.4992 13.5L12.7492 14.25H13.4992L12.8992 14.75L13.0992 15.5L12.4992 15.05L11.8992 15.5L12.0992 14.75L11.4992 14.25H12.2492L12.4992 13.5ZM8.49922 13.5L8.74922 14.25H9.49922L8.89922 14.75L9.09922 15.5L8.49922 15.05L7.89922 15.5L8.09922 14.75L7.49922 14.25H8.24922L8.49922 13.5ZM4.49922 13.5L4.74922 14.25H5.49922L4.89922 14.75L5.09922 15.5L4.49922 15.05L3.89922 15.5L4.09922 14.75L3.49922 14.25H4.24922L4.49922 13.5ZM5.89922 6.5L6.49922 6.05L7.09922 6.5L6.84922 5.75L7.44922 5.25H6.69922L6.49922 4.5L6.24922 5.25H5.54922L6.14922 5.7L5.89922 6.5ZM1.89922 12.5L2.49922 12.05L3.09922 12.5L2.84922 11.75L3.44922 11.25H2.74922L2.49922 10.5L2.24922 11.25H1.74922C1.74922 11.3 1.69922 11.35 1.69922 11.4L2.09922 11.7L1.89922 12.5Z" fill="white"/>
</svg>
